<svg width="203" height="17" viewBox="0 0 203 17" fill="none" xmlns="http://www.w3.org/2000/svg">
<path d="M15.5517 0.599992V16H12.5377V6.01199L8.20369 13.162H7.85169L3.51769 6.03399V16H0.481689V0.599992H3.60569L8.02769 7.88199L12.4277 0.599992H15.5517Z" fill="white"/>
<path d="M21.4571 13.096H27.9471V16H18.4211V0.599992H27.8371V3.50399H21.4571V6.78199H27.2871V9.64199H21.4571V13.096Z" fill="white"/>
<path d="M45.0937 7.72799V8.91599C45.0937 11.116 44.3897 12.898 42.9817 14.262C41.5737 15.626 39.7551 16.308 37.5257 16.308C35.1497 16.308 33.1771 15.538 31.6077 13.998C30.0531 12.4433 29.2757 10.5513 29.2757 8.32199C29.2757 6.07799 30.0457 4.17866 31.5857 2.62399C33.1404 1.06933 35.0617 0.291992 37.3497 0.291992C38.7871 0.291992 40.0997 0.621992 41.2877 1.28199C42.4757 1.92733 43.3997 2.79266 44.0597 3.87799L41.4637 5.37399C41.0971 4.74333 40.5397 4.22999 39.7917 3.83399C39.0584 3.43799 38.2371 3.23999 37.3277 3.23999C35.8611 3.23999 34.6511 3.72399 33.6977 4.69199C32.7591 5.64533 32.2897 6.85533 32.2897 8.32199C32.2897 9.77399 32.7664 10.9767 33.7197 11.93C34.6877 12.8687 35.9637 13.338 37.5477 13.338C38.7211 13.338 39.6891 13.0813 40.4517 12.568C41.2291 12.04 41.7571 11.3213 42.0357 10.412H37.3717V7.72799H45.0937Z" fill="white"/>
<path d="M56.5946 16L55.6706 13.228H49.5326L48.6086 16H45.3306L50.7206 0.599992H54.4826L59.8946 16H56.5946ZM50.5006 10.39H54.7246L52.6126 4.09799L50.5006 10.39Z" fill="white"/>
<path d="M70.4587 0.599992V3.50399H66.3007V16H63.2647V3.50399H59.1287V0.599992H70.4587Z" fill="white"/>
<path d="M84.2307 13.998C82.676 15.538 80.784 16.308 78.5547 16.308C76.3254 16.308 74.4334 15.538 72.8787 13.998C71.3387 12.4433 70.5687 10.544 70.5687 8.29999C70.5687 6.05599 71.3387 4.16399 72.8787 2.62399C74.4334 1.06933 76.3254 0.291992 78.5547 0.291992C80.784 0.291992 82.676 1.06933 84.2307 2.62399C85.7854 4.16399 86.5627 6.05599 86.5627 8.29999C86.5627 10.544 85.7854 12.4433 84.2307 13.998ZM75.0127 11.93C75.966 12.8687 77.1467 13.338 78.5547 13.338C79.9627 13.338 81.1434 12.8687 82.0967 11.93C83.05 10.9767 83.5267 9.76666 83.5267 8.29999C83.5267 6.83333 83.05 5.62333 82.0967 4.66999C81.1434 3.71666 79.9627 3.23999 78.5547 3.23999C77.1467 3.23999 75.966 3.71666 75.0127 4.66999C74.0594 5.62333 73.5827 6.83333 73.5827 8.29999C73.5827 9.76666 74.0594 10.9767 75.0127 11.93Z" fill="white"/>
<path d="M97.6065 0.599992H100.643V16H98.3325L91.7325 6.58399V16H88.6965V0.599992H91.0065L97.6065 9.99399V0.599992Z" fill="white"/>
<path d="M112.805 8.01399C114.155 8.79133 114.829 9.96466 114.829 11.534C114.829 12.8393 114.367 13.91 113.443 14.746C112.519 15.582 111.383 16 110.033 16H103.499V0.599992H109.571C110.891 0.599992 111.999 1.01066 112.893 1.83199C113.803 2.63866 114.257 3.67266 114.257 4.93399C114.257 6.20999 113.773 7.23666 112.805 8.01399ZM109.571 3.43799H106.535V6.82599H109.571C110.041 6.82599 110.429 6.66466 110.737 6.34199C111.06 6.01933 111.221 5.61599 111.221 5.13199C111.221 4.64799 111.067 4.24466 110.759 3.92199C110.451 3.59933 110.055 3.43799 109.571 3.43799ZM110.033 13.162C110.547 13.162 110.972 12.9933 111.309 12.656C111.647 12.304 111.815 11.864 111.815 11.336C111.815 10.8227 111.647 10.3973 111.309 10.06C110.972 9.70799 110.547 9.53199 110.033 9.53199H106.535V13.162H110.033Z" fill="white"/>
<path d="M119.856 13.096H126.346V16H116.82V0.599992H126.236V3.50399H119.856V6.78199H125.686V9.64199H119.856V13.096Z" fill="white"/>
<path d="M138.672 0.599992V3.50399H134.514V16H131.478V3.50399H127.342V0.599992H138.672Z" fill="white"/>
<path d="M152.444 13.998C150.889 15.538 148.997 16.308 146.768 16.308C144.538 16.308 142.646 15.538 141.092 13.998C139.552 12.4433 138.782 10.544 138.782 8.29999C138.782 6.05599 139.552 4.16399 141.092 2.62399C142.646 1.06933 144.538 0.291992 146.768 0.291992C148.997 0.291992 150.889 1.06933 152.444 2.62399C153.998 4.16399 154.776 6.05599 154.776 8.29999C154.776 10.544 153.998 12.4433 152.444 13.998ZM143.226 11.93C144.179 12.8687 145.36 13.338 146.768 13.338C148.176 13.338 149.356 12.8687 150.31 11.93C151.263 10.9767 151.74 9.76666 151.74 8.29999C151.74 6.83333 151.263 5.62333 150.31 4.66999C149.356 3.71666 148.176 3.23999 146.768 3.23999C145.36 3.23999 144.179 3.71666 143.226 4.66999C142.272 5.62333 141.796 6.83333 141.796 8.29999C141.796 9.76666 142.272 10.9767 143.226 11.93Z" fill="white"/>
<path d="M165.819 0.599992H168.855V16H166.545L159.945 6.58399V16H156.909V0.599992H159.219L165.819 9.99399V0.599992Z" fill="white"/>
<path d="M174.55 15.736C174.183 16.1027 173.743 16.286 173.23 16.286C172.717 16.286 172.277 16.1027 171.91 15.736C171.543 15.3693 171.36 14.9293 171.36 14.416C171.36 13.9027 171.543 13.4627 171.91 13.096C172.277 12.7293 172.717 12.546 173.23 12.546C173.743 12.546 174.183 12.7293 174.55 13.096C174.917 13.4627 175.1 13.9027 175.1 14.416C175.1 14.9293 174.917 15.3693 174.55 15.736Z" fill="white"/>
<path d="M186.047 16L182.945 10.654H180.635V16H177.599V0.599992H183.759C185.182 0.599992 186.392 1.09866 187.389 2.09599C188.386 3.09333 188.885 4.29599 188.885 5.70399C188.885 6.65733 188.614 7.54466 188.071 8.36599C187.528 9.17266 186.81 9.78133 185.915 10.192L189.325 16H186.047ZM180.635 3.43799V7.99199H183.759C184.331 7.99199 184.822 7.77199 185.233 7.33199C185.644 6.87733 185.849 6.33466 185.849 5.70399C185.849 5.07333 185.644 4.53799 185.233 4.09799C184.822 3.65799 184.331 3.43799 183.759 3.43799H180.635Z" fill="white"/>
<path d="M196.747 16.308C195.031 16.308 193.623 15.824 192.523 14.856C191.423 13.888 190.873 12.59 190.873 10.962V0.599992H193.887V10.72C193.887 11.5267 194.114 12.1647 194.569 12.634C195.038 13.1033 195.764 13.338 196.747 13.338C197.73 13.338 198.448 13.1033 198.903 12.634C199.372 12.1647 199.607 11.5267 199.607 10.72V0.599992H202.643V10.962C202.643 12.59 202.093 13.888 200.993 14.856C199.893 15.824 198.478 16.308 196.747 16.308Z" fill="white"/>
</svg>
