<svg width="61" height="78" viewBox="0 0 61 78" fill="none" xmlns="http://www.w3.org/2000/svg">
<g clip-path="url(#clip0)">
<path d="M56.1827 1.93359C39.4916 4.56873 22.537 4.56873 5.84595 1.93359C5.84595 25.2985 5.84595 48.6633 5.84595 72.116C22.6249 72.116 39.4038 72.116 56.1827 72.116C56.1827 48.6633 56.1827 25.2985 56.1827 1.93359Z" fill="white"/>
<path d="M56.4461 72.3793H5.49438V1.58203L5.84578 1.66987C22.5368 4.305 39.4036 4.305 56.0947 1.66987L56.4461 1.58203V72.3793ZM6.10932 71.7645H55.8311V2.28473C39.3158 4.91987 22.6247 4.91987 6.10932 2.28473V71.7645Z" fill="#EF9C1C"/>
<path d="M56.4459 76.5938C39.5791 74.3979 22.4488 74.3979 5.58203 76.5938C5.58203 73.3438 5.58203 70.1816 5.58203 66.9316C22.4488 69.5668 39.5791 69.5668 56.4459 66.9316C56.4459 70.1816 56.4459 73.3438 56.4459 76.5938Z" fill="#EF9C1C"/>
<path d="M59.6074 72.0277C40.7201 69.3047 21.3936 69.3047 2.50635 72.0277C2.50635 63.5953 2.50635 55.075 2.50635 46.6426C21.3936 49.6291 40.7201 49.6291 59.6074 46.6426C59.6074 55.1628 59.6074 63.5953 59.6074 72.0277Z" fill="white"/>
<path d="M59.9599 72.3788L59.6085 72.291C40.7212 69.568 21.4825 69.568 2.59529 72.291L2.2439 72.3788V46.291L2.59529 46.3789C21.4825 49.3653 40.7212 49.3653 59.6085 46.3789L59.9599 46.291V72.3788ZM31.058 69.6559C40.4577 69.6559 49.9452 70.3586 59.3449 71.6761V46.9937C40.6334 49.8924 21.5704 49.8924 2.85883 46.9937V71.764C12.1707 70.3586 21.6582 69.6559 31.058 69.6559Z" fill="#EF9C1C"/>
<path d="M13.4886 50.0677C13.4886 53.0542 13.4886 55.9529 13.4886 58.9393C12.7858 58.9393 11.9952 58.9393 11.2924 58.9393C11.2924 57.2704 11.2924 55.6893 11.2924 54.0204C10.5896 55.1623 9.88683 56.392 9.18405 57.6218C9.0962 57.6218 9.00835 57.6218 8.92051 57.6218C8.21772 56.392 7.51494 55.0745 6.81216 53.7569C6.81216 55.5137 6.81216 57.1826 6.81216 58.9393C6.10938 58.9393 5.31875 58.9393 4.61597 58.9393C4.61597 55.6015 4.61597 52.3515 4.61597 49.0137C5.31875 49.0137 6.02153 49.1893 6.81216 49.2772C7.51494 50.7704 8.30557 52.1758 9.00835 53.5812C9.71114 52.3515 10.5018 51.0339 11.2045 49.8921C11.9952 49.8921 12.698 49.9799 13.4886 50.0677Z" fill="#272727"/>
<path d="M17.0902 56.9198C18.2323 56.9198 19.3743 57.0076 20.5163 57.0076C20.5163 57.7103 20.5163 58.3252 20.5163 59.0279C18.6715 59.0279 16.7388 59.0279 14.894 58.94C14.894 56.0414 14.894 53.1427 14.894 50.1562C16.7388 50.3319 18.5837 50.5076 20.5163 50.5954C20.5163 51.2981 20.5163 51.913 20.5163 52.6157C19.3743 52.5279 18.3201 52.5279 17.1781 52.44C17.1781 52.8792 17.1781 53.2306 17.1781 53.6698C18.1444 53.7576 19.1986 53.7576 20.1649 53.8454C20.1649 54.4603 20.1649 55.163 20.1649 55.7779C19.1986 55.7779 18.1444 55.69 17.1781 55.69C17.0902 56.0414 17.0902 56.4806 17.0902 56.9198Z" fill="#272727"/>
<path d="M26.7535 50.9452C26.7535 51.6479 26.7535 52.2628 26.7535 52.9655C25.7872 52.9655 24.8209 52.8776 23.7667 52.8776C23.7667 54.8979 23.7667 57.006 23.7667 59.0263C22.9761 59.0263 22.2733 59.0263 21.4827 59.0263C21.4827 56.3033 21.4827 53.4925 21.4827 50.7695C23.3275 50.7695 24.9966 50.8574 26.7535 50.9452Z" fill="#272727"/>
<path d="M31.9365 59.0264C31.8487 58.675 31.673 58.2359 31.5851 57.8845C30.6188 57.8845 29.6525 57.8845 28.6861 57.8845C28.5983 58.2359 28.4226 58.675 28.3347 59.0264C27.5441 59.0264 26.6656 59.0264 25.875 59.0264C26.8413 56.3034 27.8077 53.6683 28.774 50.9453C29.6525 50.9453 30.6188 50.9453 31.4973 50.9453C32.4636 53.6683 33.4299 56.3034 34.3962 59.0264C33.5178 59.0264 32.7271 59.0264 31.9365 59.0264ZM29.2132 56.1278C29.8282 56.1278 30.3552 56.1278 30.9702 56.1278C30.7066 55.2494 30.3552 54.2832 30.0917 53.4048C29.7403 54.2832 29.4768 55.1615 29.2132 56.1278Z" fill="#272727"/>
<path d="M40.37 50.6816C40.37 51.3843 40.37 52.087 40.37 52.7019C39.6673 52.7019 38.9645 52.7897 38.1738 52.7897C38.1738 54.81 38.1738 56.9181 38.1738 58.9384C37.3832 58.9384 36.6804 58.9384 35.8898 58.9384C35.8898 56.9181 35.8898 54.8979 35.8898 52.7897C35.187 52.7897 34.4842 52.7897 33.6936 52.7897C33.6936 52.087 33.6936 51.4722 33.6936 50.7695C35.9776 50.9452 38.1738 50.8573 40.37 50.6816Z" fill="#272727"/>
<path d="M48.2762 57.7977C47.3977 58.676 46.2557 59.1152 45.0259 59.1152C43.7081 59.1152 42.654 58.676 41.7755 57.8855C40.897 57.095 40.4578 56.0409 40.4578 54.8112C40.4578 53.5814 40.897 52.5274 41.7755 51.649C42.654 50.7706 43.796 50.2436 45.0259 50.1558C46.3436 50.0679 47.3977 50.4193 48.2762 51.2098C49.1547 52.0004 49.5939 53.0544 49.5939 54.372C49.5939 55.7774 49.1547 56.9193 48.2762 57.7977ZM43.3567 56.3923C43.796 56.8314 44.4109 57.0071 45.0259 57.0071C45.7286 57.0071 46.2557 56.7436 46.695 56.3044C47.1342 55.8652 47.3977 55.2504 47.3977 54.5477C47.3977 53.8449 47.1342 53.3179 46.695 52.8787C46.2557 52.4395 45.6408 52.2639 45.0259 52.3517C44.3231 52.3517 43.796 52.6152 43.3567 53.1422C42.9175 53.5814 42.654 54.1085 42.654 54.8112C42.654 55.426 42.8297 55.9531 43.3567 56.3923Z" fill="#272727"/>
<path d="M55.392 49.2771C56.0948 49.1893 56.8854 49.1015 57.5882 48.9258C57.5882 52.2636 57.5882 55.5136 57.5882 58.8514C56.8854 58.8514 56.0948 58.8514 55.392 58.8514C55.392 57.6217 55.392 56.392 55.392 55.1623C54.6014 55.2501 53.7229 55.2501 52.9323 55.3379C52.9323 56.5677 52.9323 57.7096 52.9323 58.9393C52.2295 58.9393 51.4389 58.9393 50.7361 58.9393C50.7361 55.9528 50.7361 52.8785 50.7361 49.892C51.4389 49.8042 52.2295 49.7163 52.9323 49.6285C52.9323 50.7704 52.9323 51.9123 52.9323 53.0542C53.7229 52.9663 54.6014 52.8785 55.392 52.8785C55.392 51.6488 55.392 50.419 55.392 49.2771Z" fill="#272727"/>
<path d="M15.8605 63.5955C16.5633 63.5955 17.1782 63.7712 17.7053 64.2982C18.2324 64.8253 18.4959 65.3523 18.4959 66.055C18.4959 66.7577 18.2324 67.3726 17.7053 67.8996C17.1782 68.4266 16.5633 68.6901 15.8605 68.778C14.8063 68.8658 13.6643 68.9537 12.6101 69.0415C12.6101 66.055 12.6101 63.0685 12.6101 60.082C14.2792 60.082 16.0362 60.082 17.7053 60.082C17.7053 60.3455 17.7053 60.6091 17.7053 60.8726C16.2997 60.8726 14.8941 60.8726 13.4007 60.8726C13.4007 61.751 13.4007 62.7172 13.4007 63.5955C14.2792 63.5955 15.0698 63.5955 15.8605 63.5955ZM15.8605 67.8996C16.3876 67.8996 16.739 67.6361 17.0903 67.2847C17.4417 66.9334 17.6174 66.4942 17.6174 65.9672C17.6174 65.528 17.4417 65.0888 17.0903 64.7374C16.739 64.3861 16.2997 64.2104 15.8605 64.2982C15.0698 64.2982 14.2792 64.3861 13.4886 64.3861C13.4886 65.6158 13.4886 66.8455 13.4886 68.0753C14.2792 68.0753 15.0698 67.9874 15.8605 67.8996Z" fill="#272727"/>
<path d="M20.8677 67.6361C22.2733 67.5483 23.6789 67.5483 25.1723 67.4605C25.1723 67.724 25.1723 67.9875 25.1723 68.251C23.4153 68.3388 21.7462 68.3389 19.9893 68.5145C19.9893 65.7037 19.9893 62.8929 19.9893 60.1699C21.6584 60.1699 23.4153 60.1699 25.0844 60.1699C25.0844 60.4334 25.0844 60.697 25.0844 60.9605C23.6789 60.9605 22.2733 60.9605 20.8677 60.9605C20.8677 61.9267 20.8677 62.8929 20.8677 63.947C22.1854 63.947 23.5032 63.8591 24.733 63.8591C24.733 64.1226 24.733 64.3861 24.733 64.6497C23.4153 64.6497 22.0976 64.7375 20.8677 64.7375C20.8677 65.6159 20.8677 66.6699 20.8677 67.6361Z" fill="#272727"/>
<path d="M32.1124 60.082C32.1124 60.3455 32.1124 60.6091 32.1124 60.8726C31.2339 60.8726 30.2676 60.8726 29.3891 60.8726C29.3891 63.332 29.3891 65.7037 29.3891 68.1631C29.1256 68.1631 28.7742 68.1631 28.5106 68.1631C28.5106 65.7037 28.5106 63.2442 28.5106 60.8726C27.6322 60.8726 26.6658 60.8726 25.7874 60.8726C25.7874 60.6091 25.7874 60.3455 25.7874 60.082C27.9835 60.082 30.004 60.082 32.1124 60.082Z" fill="#272727"/>
<path d="M40.1942 67.2846C39.3157 68.0752 38.2615 68.4265 36.9438 68.4265C35.7139 68.4265 34.5719 67.9873 33.6934 67.109C32.815 66.3184 32.3757 65.2644 32.3757 64.1225C32.3757 62.9806 32.815 62.0144 33.6934 61.136C34.5719 60.3454 35.6261 59.9062 36.9438 59.9062C38.1737 59.9062 39.3157 60.3454 40.1942 61.136C41.0727 62.0144 41.5119 62.9806 41.5119 64.2103C41.5119 65.44 41.0727 66.4941 40.1942 67.2846ZM34.3084 66.5819C35.0112 67.2846 35.8896 67.636 36.9438 67.636C37.998 67.636 38.8765 67.3725 39.5792 66.7576C40.282 66.1427 40.6334 65.2644 40.6334 64.2981C40.6334 63.3319 40.282 62.4536 39.5792 61.8387C38.8765 61.136 37.998 60.7846 36.9438 60.7846C35.8896 60.7846 35.0112 61.136 34.3084 61.7509C33.6056 62.3657 33.2542 63.2441 33.2542 64.1225C33.2542 65.0887 33.6056 65.8792 34.3084 66.5819Z" fill="#272727"/>
<path d="M48.6276 60.082C48.8912 60.082 49.2426 60.082 49.5061 60.082C49.5061 63.0685 49.5061 66.055 49.5061 69.0415C49.2426 69.0415 48.8912 68.9537 48.6276 68.9537C48.6276 67.5483 48.6276 66.2307 48.6276 64.8253C47.0464 64.7374 45.4651 64.6496 43.8838 64.6496C43.8838 65.9672 43.8838 67.2847 43.8838 68.6023C43.6203 68.6023 43.2689 68.6023 43.0054 68.5145C43.0054 65.7037 43.0054 62.8928 43.0054 60.082C43.2689 60.082 43.6203 60.082 43.8838 60.082C43.8838 61.3118 43.8838 62.5415 43.8838 63.7712C45.4651 63.8591 47.0464 63.8591 48.6276 63.9469C48.6276 62.7172 48.6276 61.3996 48.6276 60.082Z" fill="#272727"/>
<path d="M52.4052 36.5395L51.7902 34.2558L48.452 33.9922L48.1006 34.0801L51.4388 30.3909C51.4388 30.3909 51.5267 29.6004 50.6482 29.8639C50.6482 29.776 50.5604 29.6882 50.5604 29.6004C50.4725 29.4247 50.3847 29.3368 50.2968 29.249C50.209 29.1612 49.6819 29.1612 49.4183 29.249V29.1612C49.5062 29.1612 49.594 29.1612 49.6819 29.1612C49.9454 29.0733 50.209 28.8976 50.3847 28.5463C50.7361 27.9314 50.9996 26.7017 50.4725 25.2963C50.1211 24.3301 49.6819 23.6274 49.1548 23.1882L50.209 23.1003C50.2968 23.1882 52.2295 25.3841 51.1753 28.2828V28.3706L52.0538 28.1071C52.5809 25.0328 51.4388 23.7152 51.1753 23.5395L51.8781 22.4855C51.9659 22.3976 51.8781 22.222 51.7902 22.1341L51.351 21.7828C51.0875 21.5193 50.7361 21.4314 50.2968 21.5193L46.6951 21.9585C46.6072 21.9585 46.5194 22.0463 46.4315 22.1341C46.6072 21.8706 46.5194 21.9585 46.6072 22.0463L46.6951 22.4855C44.3232 21.7828 42.3905 21.6949 41.0728 22.222C41.0728 22.222 41.0728 22.222 40.985 22.222C40.8093 22.3098 40.5457 22.3976 40.2822 22.4855C39.5794 22.749 38.5252 23.1003 37.6468 23.5395C37.4711 23.5395 37.2954 23.5395 37.1197 23.5395C36.1533 23.5395 35.0113 23.5395 33.5179 23.6274H33.4301C33.0787 23.6274 32.6394 23.6274 32.2002 23.7152C31.8488 23.7152 31.4974 23.8909 31.146 24.2422C30.9703 23.4517 30.7946 23.0125 30.7068 22.749C30.7068 22.6612 30.6189 22.6612 30.6189 22.5733C30.5311 22.5733 30.5311 22.4855 30.4432 22.4855C30.0918 22.3976 28.6863 22.0463 26.6658 21.8706C25.5238 21.7828 24.1182 21.6949 22.6248 21.6949C18.1446 21.7828 14.6307 24.0666 14.5428 24.0666L13.7522 24.9449L11.9952 29.8639L10.5897 30.1274C10.5897 30.1274 10.1504 32.0598 10.3261 34.1679C10.5018 36.1882 10.7654 36.7152 10.7654 36.7152L11.1167 36.6274C11.1167 36.6274 11.2924 36.8031 11.4681 36.8909V37.8571C11.1167 37.8571 10.7654 37.8571 10.5018 37.9449C10.0626 38.0328 9.79903 38.1206 9.71118 38.2085C9.71118 38.2963 9.71118 38.2963 9.71118 38.3841V38.7355V40.5801C9.97472 40.7558 15.5091 45.5868 16.8268 46.1139C17.1782 46.2017 17.7053 46.3774 18.1446 46.3774C19.1987 46.3774 19.9894 46.1139 19.9894 46.1139L20.5164 46.026L22.0977 44.0058C22.2734 44.0058 23.2397 43.8301 24.2061 43.7422C23.7668 46.2017 24.7331 48.3976 26.4901 49.0125C27.1929 49.276 27.8957 49.3639 28.5106 49.4517C28.5984 49.4517 28.6863 49.4517 28.7741 49.4517C29.1255 49.4517 29.4769 49.3639 29.8283 49.276C29.9162 49.276 29.9162 49.276 30.004 49.1882C30.004 49.1882 30.004 49.1882 30.0919 49.1882C30.6189 48.9247 31.146 48.4855 31.5853 47.8706C32.1123 47.1679 32.5516 46.3774 32.7273 45.4112C33.4301 42.6882 32.5516 40.0531 30.6189 39.526C30.4432 39.4382 30.004 39.3504 29.7405 39.2625C29.0377 39.0868 28.247 39.0868 27.4564 39.3504C28.3349 38.9112 29.3012 38.8233 30.1797 39.0868C30.3554 39.1747 30.8825 39.2625 31.0582 39.3504C32.5516 39.7895 33.4301 41.4585 33.4301 43.3909C33.4301 44.0058 33.3422 44.6206 33.1665 45.2355C33.1665 45.3233 33.1665 45.3233 33.0787 45.4112L44.7624 41.2828C44.9381 41.722 45.2017 42.0733 45.553 42.1612C46.0801 42.3368 46.6072 42.5125 46.9586 42.5125H47.0465C47.6614 42.5125 48.2763 41.8098 48.6277 40.7558C48.9791 39.6139 48.9791 38.2963 48.7156 37.4179C49.067 38.2963 49.067 39.6139 48.8034 40.8436C48.8913 40.9314 49.067 41.0193 49.1548 41.0193C49.4183 41.1071 49.6819 41.1071 49.9454 41.1071C50.1211 41.1071 50.2968 41.1071 50.3847 41.0193C50.6482 41.0193 50.9118 40.8436 51.0875 40.4922C51.2631 40.1409 51.5267 39.7895 51.6145 39.2625C51.7024 38.9112 51.7902 38.5598 51.7902 38.1206C51.8781 37.5058 51.7902 36.8909 51.7024 36.4517L52.4052 36.5395ZM51.6145 34.3436C51.5267 34.4314 51.5267 34.5193 51.5267 34.6949L48.8034 35.1341L48.5399 34.8706L51.6145 34.3436ZM50.0333 29.8639C50.209 30.2152 50.1211 30.8301 50.1211 30.8301H48.452C48.5399 30.7422 48.6277 30.6544 48.6277 30.5666C48.8034 30.3031 48.9791 29.9517 49.1548 29.6004C49.1548 29.6004 49.1548 29.6004 49.2427 29.6004C49.5062 29.6004 49.9454 29.6004 50.0333 29.8639ZM47.6614 22.5733C48.3642 22.5733 49.6819 23.276 50.2968 25.2085C50.7361 26.526 50.4725 27.6679 50.209 28.1949C50.0333 28.4585 49.8576 28.6341 49.6819 28.722C50.3847 28.0193 50.5604 26.7017 50.209 25.2963C49.6819 23.7152 48.5399 22.6612 47.4857 22.6612C47.4857 22.5733 47.5735 22.5733 47.6614 22.5733ZM41.3364 22.6612C41.5121 22.5733 41.6877 22.5733 41.8634 22.4855L42.2148 22.3976C43.269 22.222 44.7624 22.3098 46.4315 22.8368C46.5194 22.9247 47.2222 23.4517 47.9249 24.4179C47.8371 25.2963 47.3979 26.0868 46.6072 27.4922C45.9923 28.5463 45.2895 29.4247 44.7624 30.0395C44.6746 29.5125 44.5867 28.9855 44.411 28.3706C44.2353 27.6679 43.5325 26.1747 42.3027 25.2085C43.0055 25.999 43.6204 27.0531 43.9718 28.2828C44.2353 29.0733 44.3232 29.9517 44.3232 30.6544C44.3232 31.8841 44.0596 32.9382 43.5326 33.7287C43.1812 34.2558 42.7419 34.6071 42.2148 34.7828C42.0391 34.8706 41.7756 34.9585 41.5121 34.9585C41.6877 34.9585 41.7756 34.8706 41.8634 34.8706C42.3905 34.6949 42.8298 34.3436 43.1812 33.8166C43.7082 33.1139 43.9718 32.0598 43.9718 30.8301V30.7422C43.7082 31.0058 43.5326 31.0936 43.5326 31.0936C43.5326 30.7422 43.5326 30.3031 43.5326 29.9517C43.4447 29.3368 43.269 28.6341 43.0933 28.0193C42.3905 26.0868 40.8971 24.3301 39.4037 23.5395C40.0186 23.1003 40.7214 22.8368 41.3364 22.6612ZM39.1402 29.6004C39.0523 29.4247 38.9645 29.1612 38.8766 28.9855C39.4916 28.4585 39.8429 27.5801 39.8429 26.4382C39.8429 26.3503 39.8429 26.3503 39.8429 26.2625C39.8429 25.5598 39.6673 25.0328 39.3159 24.5058C40.4579 25.2085 41.5121 26.7017 42.0391 28.3706V28.4585C42.6541 30.4787 42.4784 32.499 41.5999 33.7287C41.2485 34.2558 40.8093 34.6071 40.2822 34.7828C39.228 35.1341 37.9981 34.6071 36.944 33.4652C37.1197 33.5531 37.3832 33.5531 37.5589 33.5531C37.7346 33.5531 37.8224 33.5531 37.9981 33.4652C39.228 33.1139 39.7551 31.3571 39.1402 29.6004ZM37.5589 23.8909C37.6468 23.8909 37.8224 23.8031 37.9103 23.8031C38.7009 23.8031 39.4037 24.6814 39.5794 25.9112C39.5794 26.0868 39.5794 26.2625 39.5794 26.4382C39.5794 27.8436 38.7888 29.0733 37.8224 29.0733C36.8561 29.0733 36.0655 27.9314 36.0655 26.4382C36.1533 25.2085 36.7683 24.1544 37.5589 23.8909ZM36.0655 29.6882C36.5926 29.6882 37.0318 29.6882 37.4711 29.6882C37.4711 29.6882 37.4711 29.6882 37.5589 29.6882C37.8224 29.6882 38.086 29.6004 38.3495 29.4247C38.4374 29.6004 38.5252 29.776 38.5252 29.9517C38.9645 31.4449 38.6131 32.8504 37.6468 33.1139C37.1197 33.2895 36.5926 33.026 36.0655 32.5868C36.329 32.3233 36.4169 31.7963 36.329 31.1814C36.1533 30.4787 35.7141 29.9517 35.2749 29.9517C35.187 29.9517 35.187 29.9517 35.0992 29.9517H35.0113C35.0113 29.8639 35.0113 29.6882 35.0113 29.6004C35.3627 29.6004 35.6263 29.6004 35.9776 29.6004C36.0655 29.6882 36.0655 29.6882 36.0655 29.6882ZM35.802 23.6274C35.0113 23.9787 34.4842 25.1206 34.4842 26.3503C34.4842 27.6679 35.0113 28.8098 35.802 29.1612C34.9235 28.9855 34.2207 27.8436 34.2207 26.3503C34.2207 24.9449 34.9235 23.7152 35.802 23.6274ZM33.9571 30.7422H34.045C34.3085 30.7422 34.6599 31.0936 34.7478 31.4449C34.8356 31.8841 34.7478 32.4112 34.3964 32.499C34.3964 32.499 34.3964 32.499 34.3085 32.499C34.045 32.499 33.6936 32.1476 33.6058 31.7963C33.5179 31.2693 33.6936 30.7422 33.9571 30.7422ZM33.6058 23.8031H33.6936C33.4301 23.8909 33.0787 24.1544 32.903 24.4179C32.5516 24.9449 32.3759 25.5598 32.3759 26.3503C32.3759 27.5801 32.903 28.722 33.6936 28.9855H33.5179C32.6394 28.8098 31.9367 27.7558 31.9367 26.3503C32.0245 25.0328 32.7273 23.8909 33.6058 23.8031ZM14.5428 25.0328C14.5428 25.0328 16.1241 24.3301 16.8268 24.0666C17.5296 23.8909 21.4828 23.4517 21.6585 23.4517L19.7258 28.8098L19.4623 29.6004H19.023L15.1577 29.4247H14.8942L16.4755 24.5936H16.3876C15.8605 24.7693 14.8063 25.2963 14.3671 25.472L14.5428 25.0328ZM11.0289 33.8166C11.2046 33.8166 11.2924 33.9044 11.4681 33.9922C11.6438 34.0801 11.8195 34.0801 11.9952 34.1679C12.3466 34.2558 12.698 34.4314 13.0494 34.5193C13.3129 34.6071 13.4886 34.6949 13.7522 34.6949C13.9279 34.6949 14.0157 34.7828 14.1914 34.7828C14.982 34.9585 15.7727 35.1341 16.6512 35.3098C16.8268 35.3098 16.9147 35.3098 17.0904 35.3976C17.0904 34.3436 17.1782 33.3774 17.2661 32.3233C17.2661 32.1476 17.3539 31.972 17.3539 31.7963C17.1782 31.7963 16.9147 31.7085 16.739 31.7085C15.5091 31.5328 14.2793 31.4449 12.9615 31.3571C12.3466 31.2693 11.7317 31.2693 11.1167 31.1814C12.5223 31.1814 13.9279 31.1814 15.3334 31.2693C15.9484 31.2693 16.4755 31.3571 17.0025 31.4449C17.0904 31.4449 17.0904 31.4449 17.1782 31.4449C17.3539 31.4449 17.4418 31.4449 17.6175 31.5328C17.7053 31.5328 17.7053 31.5328 17.7053 31.6206C17.7053 31.7085 17.7053 31.7085 17.7053 31.7963C17.7053 32.0598 17.6175 32.3233 17.6175 32.6747C17.6175 33.1139 17.6175 33.7287 17.5296 34.2558C17.5296 34.7828 17.5296 35.222 17.4418 35.749C16.739 35.6612 16.0362 35.5733 15.3334 35.3098C14.8063 35.1341 14.1914 34.9585 13.6643 34.7828C13.3129 34.6949 13.0494 34.5193 12.698 34.4314C12.1709 34.2558 11.556 34.0801 11.0289 33.8166ZM11.2924 36.4517C11.4681 36.5395 11.556 36.7152 11.7317 36.8031C12.4345 37.3301 13.2251 37.7693 14.0157 38.2085C14.7185 38.5598 15.4213 38.8233 16.1241 39.0868C16.3876 39.1747 16.5633 39.1747 16.8268 39.2625C17.0025 39.3504 17.1782 39.3504 17.4418 39.3504C17.3539 38.8233 17.3539 38.3841 17.2661 37.8571C17.1782 37.1544 17.1782 36.5395 17.1782 35.8368C17.2661 35.9247 17.3539 35.9247 17.5296 35.9247V36.0125C17.5296 36.7152 17.6175 37.4179 17.6175 38.1206C17.6175 38.6476 17.7053 39.2625 17.7932 39.7895C17.7053 39.7895 17.6175 39.7017 17.5296 39.7017C16.9147 39.6139 16.2998 39.4382 15.6848 39.1747C14.8942 38.9112 14.1914 38.472 13.4886 38.0328C12.8737 37.6814 12.2588 37.2422 11.7317 36.7152C11.556 36.7152 11.3803 36.6274 11.2924 36.4517ZM10.3261 40.4044L9.97472 40.5801V38.999L10.414 39.3504V40.1409L11.556 41.1949L10.3261 40.4044ZM14.982 44.0058L14.6307 44.2693V42.0733L15.1577 42.5125V43.8301L16.2998 44.8841L14.982 44.0058ZM18.496 45.7625C18.3203 45.7625 18.1446 45.7625 17.9689 45.7625V43.6544C17.1782 43.7422 16.4755 43.2152 16.4755 43.2152C16.3876 43.2152 10.7654 39.4382 10.2383 38.999C10.0626 38.8233 9.97472 38.7355 9.88688 38.6476C9.79903 38.472 9.79903 38.3841 9.79903 38.3841C9.88688 38.2963 9.97472 38.2085 10.414 38.1206C10.6775 38.0328 11.0289 38.0328 11.4681 38.0328V38.8233L11.2924 38.1206C10.941 38.1206 10.414 38.2085 10.414 38.3841C10.414 38.472 10.5018 38.5598 10.6775 38.7355C11.4681 39.3503 17.0025 42.776 17.0904 42.776C17.0904 42.776 17.7053 43.0395 18.5838 43.0395C18.9352 43.0395 19.2866 42.9517 19.638 42.8639C19.8137 42.776 19.9015 42.8639 19.9894 42.8639V45.3233C19.9015 45.499 19.1987 45.7625 18.496 45.7625ZM24.2061 43.2152C23.064 43.3909 22.6248 43.3909 22.4491 43.4787C22.2734 43.3909 22.0099 43.3031 21.6585 43.0395C21.5706 42.9517 21.4828 42.9517 21.3949 42.9517L20.6921 42.8639V42.776C20.6921 42.5125 20.6921 42.3368 20.5164 42.1612C20.4286 42.0733 20.2529 41.8976 19.9015 41.8976C19.8137 41.8976 19.7258 41.8976 19.5501 41.9855C19.2866 42.0733 18.9352 42.0733 18.6716 42.0733C18.0567 42.0733 17.5296 41.8976 17.4418 41.8976C17.0025 41.6341 14.0157 39.8774 12.2588 38.9112V38.2085C12.5223 38.3841 12.8737 38.6476 13.1372 38.8233C13.84 39.2625 14.6307 39.7017 15.4213 39.9652C16.1241 40.2287 16.8268 40.4044 17.3539 40.4922L17.6175 40.5801C17.7053 40.5801 17.7053 40.5801 17.7932 40.5801C17.9689 40.5801 18.0567 40.4922 18.2324 40.4044C18.4081 40.2287 18.496 40.0531 18.4081 39.8774C18.4081 39.7895 18.4081 39.6139 18.4081 39.526C18.3203 39.0868 18.3203 38.6476 18.3203 38.2085C18.2324 37.5936 18.2324 36.8909 18.2324 36.1882V35.9247V35.8368V35.749C18.2324 35.6612 18.2324 35.4855 18.2324 35.3976C18.2324 35.0463 18.2324 34.6949 18.2324 34.4314C18.3203 33.8166 18.3203 33.2895 18.4081 32.7625C18.4081 32.5868 18.496 32.3233 18.496 32.1476C18.496 32.0598 18.496 32.0598 18.496 31.972V31.8841V31.7963C18.496 31.6206 18.496 31.3571 18.3203 31.2693C18.2324 31.0936 18.0567 31.0058 17.7932 31.0058H17.6175H17.4418C16.739 30.9179 16.1241 30.8301 15.5091 30.8301C14.3671 30.7422 13.1372 30.7422 11.9074 30.7422H11.7317L12.2588 30.6544C12.2588 30.6544 12.2588 30.6544 12.3466 30.6544H14.8063L17.881 30.7422L19.7258 30.8301C19.9894 30.8301 20.2529 30.6544 20.3408 30.3909L21.4828 27.1409L22.8005 23.5395C22.8883 23.3639 22.8005 23.1003 22.7126 22.9247C22.6248 22.749 22.4491 22.6612 22.1856 22.6612H22.0977H22.0099C21.5706 22.6612 19.9894 22.8368 18.6716 23.0125C19.9015 22.6612 21.3071 22.3098 22.8005 22.3098C23.064 22.3098 23.3276 22.3098 23.5911 22.3098C24.5574 22.3098 25.3481 22.3098 26.1387 22.3976C28.247 22.5733 29.8283 22.9247 30.3554 23.0125C30.6189 23.8031 30.9703 25.472 31.0582 28.2828C31.146 31.0936 31.146 33.1139 31.146 34.1679C30.3554 34.3436 25.6116 35.1341 24.7331 42.8639C24.5574 42.8639 24.3817 42.9517 24.2061 43.2152ZM31.8488 45.0598C31.5853 46.1139 30.8825 46.9922 30.1797 47.3436C30.8825 46.9044 31.4974 46.1139 31.761 45.0598C32.0245 43.9179 31.9367 42.776 31.4096 42.0733C31.9367 42.776 32.2002 43.9179 31.8488 45.0598ZM29.9162 41.722C30.004 41.722 30.1797 41.722 30.2675 41.8098C31.3217 42.0733 31.8488 43.5666 31.4096 45.0598C31.0582 46.3774 30.0918 47.3436 29.1255 47.3436C29.0377 47.3436 28.862 47.3436 28.7741 47.2558C28.247 47.0801 27.8957 46.7287 27.6321 46.1139C27.3686 45.499 27.3686 44.7085 27.6321 44.0058C27.9835 42.6882 28.9498 41.722 29.9162 41.722ZM34.4842 41.6341C34.3085 41.6341 34.2207 41.3706 34.2207 41.3706C34.2207 41.3706 34.1328 41.1071 33.7815 39.3504C33.3422 37.5936 32.2002 36.8909 32.2002 36.8909C32.2002 36.8909 29.2134 37.2422 27.72 38.9112C27.0172 39.7017 26.6658 40.6679 26.4022 41.5463C26.8415 40.8436 27.3686 40.2287 28.1592 40.0531C27.3686 40.3166 26.7536 41.5463 26.3144 42.776C25.6116 44.972 25.7873 47.6071 26.8415 48.4855C26.9293 48.5733 26.9293 48.5733 27.0172 48.6612C26.9293 48.5733 26.7536 48.4855 26.6658 48.3976C25.6995 47.5193 25.2602 45.2355 25.7873 43.1274C25.6995 43.0395 25.5238 42.9517 25.3481 42.9517C25.4359 42.4247 25.8752 38.2085 28.4227 36.7152C30.4432 35.4855 32.2002 35.4855 32.6394 35.4855C32.8151 35.4855 32.903 35.5733 33.0787 35.6612C34.5721 38.2085 34.5721 41.4585 34.4842 41.6341ZM36.329 38.6476C36.0655 38.472 34.7478 38.2085 34.5721 38.1206C34.4842 37.9449 34.4842 37.7693 34.3964 37.5936C34.5721 37.5936 35.8898 37.9449 37.2075 38.2963C37.5589 38.3841 37.6468 38.5598 37.6468 38.6476L38.086 38.5598C38.086 38.472 37.9103 38.2085 37.5589 38.1206C36.4169 37.7693 35.2749 37.5058 34.8356 37.4179L37.3832 36.9787C37.4711 36.9787 39.8429 37.5058 40.1943 37.6814C40.4579 37.7693 40.5457 37.9449 40.5457 38.0328L41.0728 37.9449C41.0728 37.8571 40.985 37.6814 40.7214 37.5058C40.4579 37.4179 38.7009 36.9787 38.086 36.8909L38.3495 36.8031C38.6131 36.8031 38.7888 36.8031 39.0523 36.8031C39.5794 36.8909 40.5457 37.0666 41.2485 37.2422C41.9513 37.4179 42.127 37.5936 42.127 37.6814L43.9718 37.3301L35.187 39.6139L34.5721 39.2625L36.5047 38.8233C36.5047 38.8233 36.4169 38.7355 36.329 38.6476ZM41.1607 39.3504L42.2148 39.0868C42.2148 39.2625 42.2148 40.4044 42.127 40.7558L41.0728 41.1071C41.1607 40.4922 41.1607 39.4382 41.1607 39.3504ZM40.6336 41.1949L38.2617 41.9855C38.2617 41.4585 38.3495 40.2287 38.3495 40.0531L40.7214 39.4382C40.7214 39.6139 40.8093 40.6679 40.6336 41.1949ZM37.9981 40.1409C37.9981 40.4044 37.9981 41.5463 37.9103 42.0733L37.0318 42.3368C37.0318 41.8098 37.1197 40.4922 37.1197 40.3166L37.9981 40.1409ZM44.9381 40.5801L35.187 43.7422L35.2749 39.7895L35.8898 40.4044V42.9517L40.5457 41.4585L44.8503 40.0531L44.9381 38.2085C45.026 38.1206 45.2017 38.0328 45.2017 37.8571L44.9381 40.5801ZM46.6951 42.0733C46.0801 41.4585 45.9044 39.7017 46.3437 38.2085C46.6072 37.3301 47.0465 36.7152 47.5735 36.4517C47.1343 36.7152 46.7829 37.3301 46.5194 38.2085C46.0801 39.7017 46.168 41.4585 46.8708 42.1612C46.9586 42.1612 46.9586 42.249 46.9586 42.249C46.8708 42.1612 46.7829 42.1612 46.6951 42.0733ZM46.8708 39.2625C46.9586 38.999 47.0465 38.8233 47.1343 38.8233C47.1343 38.8233 47.1343 38.8233 47.2222 38.8233C47.3979 38.9112 47.3979 39.1747 47.3979 39.4382C47.3979 39.7017 47.2222 39.8774 47.1343 39.8774C47.1343 39.8774 47.1343 39.8774 47.0465 39.8774C46.9586 39.8774 46.9586 39.7895 46.8708 39.6139C46.7829 39.526 46.7829 39.3504 46.8708 39.2625ZM48.1885 40.1409C48.0128 40.7558 47.6614 41.1949 47.31 41.1949C47.2222 41.1949 47.1343 41.1071 47.0465 41.0193C46.8708 40.8436 46.7829 40.4922 46.6951 40.0531C46.6951 40.1409 46.7829 40.2287 46.7829 40.2287C46.7829 40.3166 46.8708 40.3166 46.9586 40.3166H47.0465C47.31 40.3166 47.4857 39.9652 47.5735 39.4382C47.5735 39.1747 47.5735 38.9112 47.5735 38.6476C47.4857 38.3841 47.3979 38.2963 47.31 38.2085H47.2222C47.1343 38.2085 47.1343 38.2085 47.0465 38.2085C46.9586 38.2085 46.9586 38.2963 46.8708 38.3841C47.0465 37.8571 47.31 37.5058 47.6614 37.5058C47.7492 37.5058 47.8371 37.5936 47.9249 37.6814C48.3642 38.2085 48.452 39.2625 48.1885 40.1409ZM48.5399 36.7152C48.452 36.6274 48.452 36.6274 48.3642 36.5395C48.2763 36.4517 48.1885 36.3639 48.1006 36.3639C47.9249 36.276 47.7492 36.1882 47.5735 36.1003C47.2222 36.0125 47.1343 36.0125 46.8708 36.0125L47.0465 35.5733L48.8913 35.222L49.594 35.1341V35.3098C49.4183 35.3098 49.2427 35.3976 49.1548 35.4855C48.9791 35.8368 48.7156 36.1882 48.5399 36.7152ZM50.0333 40.7558C49.4183 40.1409 49.3305 38.5598 49.7697 37.1544C49.8576 36.8031 49.9454 36.5395 50.1211 36.3639C50.2968 36.0125 50.5604 35.749 50.9118 35.5733C50.6482 35.749 50.3847 36.0125 50.209 36.3639C50.1211 36.5395 50.0333 36.8031 49.8576 37.1544C49.4183 38.5598 49.594 40.2287 50.1211 40.7558L50.209 40.8436C50.209 40.9314 50.1211 40.8436 50.0333 40.7558ZM51.2631 38.999C51.0875 39.6139 50.8239 39.9652 50.5604 39.9652C50.4725 39.9652 50.3847 39.9652 50.2968 39.8774C50.0333 39.526 49.9454 38.5598 50.1211 37.7693C50.209 37.3301 50.3847 37.0666 50.5604 36.8909C50.6482 36.8031 50.7361 36.8031 50.8239 36.8031C50.9118 36.8031 50.9996 36.8909 51.0875 36.9787C51.2631 37.1544 51.351 37.4179 51.351 37.7693C51.4388 38.1206 51.4388 38.5598 51.2631 38.999Z" fill="#272727"/>
<path d="M30.7946 43.9196C30.7067 43.6561 30.531 43.4804 30.2675 43.3926C30.1796 43.3926 30.1796 43.3926 30.0918 43.3926C29.6525 43.3926 29.2133 43.8318 29.1255 44.3588C29.0376 44.7101 29.0376 44.9736 29.1255 45.2372C29.2133 45.5007 29.389 45.6763 29.6525 45.7642C29.7404 45.7642 29.7404 45.7642 29.8282 45.7642C30.2675 45.7642 30.7067 45.325 30.7946 44.798C30.8824 44.4466 30.8824 44.0953 30.7946 43.9196ZM30.2675 44.6223C30.1796 44.8858 30.0039 45.1493 29.7404 45.1493H29.6525C29.5647 45.1493 29.4768 45.0615 29.389 44.8858C29.3012 44.7101 29.3012 44.5345 29.389 44.4466C29.4768 44.1831 29.6525 43.9196 29.9161 43.9196H30.0039C30.2675 43.9196 30.4432 44.2709 30.2675 44.6223Z" fill="#272727"/>
<path d="M38.2615 28.5463C37.4709 28.5463 36.856 27.5801 36.856 26.4382C36.856 25.3841 37.383 24.5058 37.998 24.3301C38.0858 24.3301 38.1737 24.3301 38.1737 24.3301C38.4372 24.3301 38.3494 24.4179 38.2615 24.6814C37.998 25.1206 37.2073 25.9112 37.8223 26.7017C38.6129 27.6679 39.0522 28.5463 38.2615 28.5463Z" fill="#272727"/>
<path d="M48.1882 40.1412C48.0125 40.756 47.6611 41.1952 47.3098 41.1952C47.2219 41.1952 47.1341 41.1074 47.0462 41.0195C46.8705 40.8439 46.7827 40.4925 46.6948 40.0533C46.6948 40.1411 46.7827 40.229 46.7827 40.229C46.7827 40.5803 46.8705 40.756 47.0462 40.9317C47.1341 41.0195 47.2219 41.0195 47.3098 41.0195C47.5733 41.1074 47.9247 40.6682 48.1882 40.1412C48.3639 39.2628 48.2761 38.2966 47.9247 37.9452C47.8368 37.8574 47.749 37.8574 47.6612 37.8574C47.4855 37.8574 47.2219 38.1209 47.0462 38.4722C46.9584 38.4722 46.9584 38.5601 46.8705 38.6479C47.0462 38.1209 47.3098 37.7695 47.6612 37.7695C47.749 37.7695 47.8368 37.8574 47.9247 37.9452C48.3639 38.2087 48.4518 39.2628 48.1882 40.1412Z" fill="#272727"/>
<path d="M51.3509 37.683C51.3509 37.3317 51.263 37.0681 51.0873 36.8925C50.9995 36.8046 50.9116 36.7168 50.8238 36.7168C50.736 36.7168 50.6481 36.7168 50.5603 36.8046C50.3846 36.9803 50.2089 37.2438 50.121 37.683C49.9453 38.4736 49.9453 39.4398 50.2967 39.7911C50.3846 39.879 50.4724 39.879 50.5603 39.879C50.8238 39.879 51.0873 39.5276 51.263 38.9127C51.4387 38.5614 51.4387 38.1222 51.3509 37.683ZM51.1752 39.0006C50.9995 39.5276 50.736 39.879 50.5603 39.879C50.4724 39.879 50.3846 39.879 50.3846 39.7911C50.2967 39.6154 50.2089 39.3519 50.121 39.0006C50.121 39.0006 50.121 38.9127 50.121 38.8249C50.0332 38.6492 50.0332 38.3857 50.121 38.21C50.121 38.0344 50.2089 37.8587 50.2967 37.683C50.3846 37.3317 50.5603 37.0681 50.736 36.8925C50.8238 36.8046 50.9116 36.8046 50.9116 36.8046C50.9995 36.8046 51.0873 36.8046 51.0873 36.8925C51.1752 36.9803 51.263 37.2438 51.3509 37.5073C51.3509 38.0344 51.3509 38.5614 51.1752 39.0006Z" fill="#272727"/>
<path d="M41.6876 33.6418C41.6876 33.6418 41.6876 33.7297 41.6876 33.6418C41.3362 34.081 40.9848 34.4324 40.5456 34.5202C40.3699 34.608 40.1942 34.608 40.0185 34.608C39.4914 34.608 38.8765 34.4324 38.3494 33.9932C38.4372 33.9932 38.4372 33.9932 38.4372 33.9932C39.7549 33.554 40.3699 31.7094 39.7549 29.6891C39.7549 29.5135 39.6671 29.4256 39.5792 29.2499C40.1063 28.6351 40.4577 27.8445 40.4577 26.8783C40.4577 26.7905 40.4577 26.7905 40.4577 26.7026C40.4577 26.4391 40.4577 26.1756 40.3699 25.9121C40.9848 26.527 41.424 27.4054 41.7754 28.2837C41.8633 28.4594 41.8633 28.6351 41.9511 28.8108C42.5661 30.5675 42.4782 32.4999 41.6876 33.6418Z" fill="#EF9C1C"/>
<path d="M42.1268 22.8387C42.039 22.9265 41.8633 22.9265 41.6876 23.0144C41.3362 23.1022 40.8091 23.2779 40.3699 23.4536C43.5324 24.5076 44.8501 28.0211 44.8501 28.1968C44.938 28.4603 45.0258 28.8117 45.1136 29.163C45.5529 28.636 45.9921 28.0211 46.4314 27.2306C47.1341 25.913 47.4855 25.2103 47.6612 24.4198C47.1341 23.6292 46.6071 23.1901 46.4314 23.1022C44.8501 22.663 43.5324 22.4873 42.5661 22.663H42.4782C42.3904 22.663 42.3904 22.663 42.3025 22.7509L42.1268 22.8387Z" fill="#EF9C1C"/>
<path d="M30.443 26.8787C30.3551 25.4733 30.1794 24.1558 30.1794 24.1558L24.9964 23.4531L24.1179 23.3652L23.503 24.9463L21.6582 29.6017H30.443C30.5308 29.6017 30.5308 28.2842 30.443 26.8787ZM22.2731 29.0747L24.0301 24.595L24.2936 23.9801L24.645 24.0679L29.2131 24.6828C29.2131 24.6828 29.3888 25.8247 29.3888 26.9666C29.4767 28.1085 29.4767 29.1625 29.4767 29.1625L22.2731 29.0747Z" fill="#272727"/>
<path d="M30.8824 29.6889C30.8824 29.6889 30.8824 29.7768 30.7946 29.7768C30.7946 29.8646 30.7067 29.8646 30.6189 29.8646H21.8341C21.7463 29.8646 21.5706 29.7768 21.5706 29.6889C21.4827 29.6011 21.4827 29.5133 21.5706 29.3376L23.064 25.4727L24.0303 23.1011C24.1181 22.9254 24.206 22.8376 24.3817 22.8376L25.5237 23.0133L30.3553 23.6281H30.4432C30.3553 23.3646 30.3553 23.1889 30.2675 23.0133C29.5647 22.8376 28.0713 22.5741 26.0508 22.3984C25.348 22.3105 24.5574 22.3105 23.7668 22.3105C23.5911 22.3105 23.3275 22.3105 23.1518 22.3105C23.3275 22.5741 23.4154 22.9254 23.3275 23.2768L22.1855 26.3511L20.7799 30.216C20.6042 30.6551 20.2529 30.8308 19.8136 30.8308H18.8473C19.023 31.0065 19.023 31.27 19.023 31.5335L18.9351 31.8849C18.9351 32.0606 18.8473 32.3241 18.8473 32.4997C18.7594 33.0268 18.7594 33.5538 18.6716 34.1687C18.6716 34.52 18.6716 34.7835 18.6716 35.1349C18.6716 35.2227 18.6716 35.3984 18.6716 35.4862V35.6619V35.9254C18.6716 36.6281 18.7594 37.3308 18.7594 37.9457C18.7594 38.3849 18.8473 38.8241 18.8473 39.2633C18.8473 39.3511 18.8473 39.5268 18.8473 39.6146C18.8473 39.966 18.7594 40.2295 18.4959 40.493C18.2324 40.6687 17.881 40.7565 17.6174 40.6687L17.3539 40.5808C16.8268 40.493 16.2119 40.3173 15.5969 40.0538C16.5632 40.6687 17.4417 41.1079 17.7053 41.2835C17.7931 41.2835 18.2324 41.4592 18.7594 41.4592C19.023 41.4592 19.2865 41.4592 19.5501 41.3714C19.7258 41.3714 19.8136 41.2835 19.9893 41.2835C20.5164 41.2835 20.7799 41.547 20.9556 41.7227C21.0435 41.8984 21.1313 42.0741 21.1313 42.3376H21.4827C21.6584 42.3376 21.7463 42.4254 21.922 42.4254C22.1855 42.6011 22.449 42.6889 22.5369 42.7768C22.7126 42.7768 23.1518 42.6889 24.0303 42.6011C24.206 42.4254 24.3817 42.3376 24.5574 42.3376C25.1723 37.5943 27.3685 34.52 30.8824 33.6416C30.9703 32.8511 30.9703 31.4457 30.8824 29.6889ZM30.2675 33.2903C30.1796 33.2903 30.0918 33.2903 29.9161 33.3781C29.7404 33.3781 29.5647 33.466 29.389 33.5538C29.2133 33.6416 28.9498 33.7295 28.7741 33.8173C28.6862 33.9051 28.5105 33.9051 28.4227 33.993C28.3348 34.0808 28.1591 34.1687 28.0713 34.1687C27.8078 34.3443 27.5442 34.52 27.3685 34.6957C27.2807 34.7835 27.105 34.8714 27.0171 35.047C26.9293 35.1349 26.7536 35.2227 26.6657 35.3984C26.5779 35.4862 26.4022 35.6619 26.3143 35.7497C26.2265 35.9254 26.1386 36.0133 25.963 36.1889C25.7873 36.4524 25.5237 36.716 25.348 36.9795C25.2602 37.1551 25.1723 37.243 25.0845 37.4187C24.9966 37.5943 24.9088 37.6822 24.8209 37.8579C24.7331 38.0335 24.6452 38.1214 24.6452 38.297C24.5574 38.4727 24.5574 38.5606 24.4695 38.7362C24.3817 38.9997 24.2938 39.2633 24.206 39.5268C24.206 39.6146 24.1181 39.7903 24.1181 39.8781C24.1181 39.966 24.0303 40.0538 24.0303 40.2295C24.0303 40.3173 23.9425 40.4052 23.9425 40.493C23.9425 40.5808 23.9425 40.6687 23.8546 40.7565C23.8546 40.8443 23.7668 40.9322 23.7668 41.02C23.7668 40.9322 23.7668 40.8443 23.8546 40.7565C23.8546 40.6687 23.8546 40.5808 23.9425 40.493C23.9425 40.4052 23.9425 40.3173 24.0303 40.2295C24.0303 40.1416 24.1181 40.0538 24.1181 39.8781C24.1181 39.7025 24.206 39.6146 24.206 39.5268C24.2938 39.2633 24.3817 38.9997 24.4695 38.7362C24.5574 38.5606 24.5574 38.4727 24.6452 38.297C24.7331 38.1214 24.7331 38.0335 24.8209 37.8579C24.9088 37.6822 24.9966 37.5943 24.9966 37.4187C25.0845 37.243 25.1723 37.1551 25.2602 36.9795C25.4359 36.716 25.6116 36.3646 25.7873 36.1011C25.8751 35.9254 25.963 35.8376 26.1386 35.6619C26.2265 35.5741 26.3143 35.3984 26.49 35.3106C26.5779 35.2227 26.7536 35.047 26.8414 34.9592C26.9293 34.8714 27.105 34.6957 27.1928 34.6079C27.4564 34.4322 27.7199 34.1687 27.8956 33.993C27.9834 33.9051 28.1591 33.8173 28.247 33.7295C28.3348 33.6416 28.5105 33.5538 28.5984 33.5538C28.8619 33.466 29.0376 33.2903 29.2133 33.2024C29.389 33.1146 29.5647 33.0268 29.7404 33.0268C29.9161 32.9389 30.0039 32.9389 30.0918 32.9389C30.1796 32.9389 30.2675 32.9389 30.2675 32.9389L30.3553 33.3781C30.3553 33.2903 30.3553 33.2903 30.2675 33.2903Z" fill="#EF9C1C"/>
<path d="M50.8238 37.9451C50.8238 37.7694 50.736 37.5938 50.5603 37.5938H50.4724C50.3846 37.5938 50.2967 37.6816 50.2089 37.7694C50.121 37.8573 50.0332 38.0329 50.0332 38.2965C50.0332 38.4721 50.0332 38.7356 50.0332 38.9113C50.0332 38.9992 50.0332 38.9992 50.0332 39.087C50.1211 39.1748 50.121 39.2627 50.2089 39.3505H50.2967C50.4724 39.3505 50.6481 39.087 50.736 38.6478C50.9117 38.3843 50.9117 38.1208 50.8238 37.9451ZM50.6481 38.4721C50.6481 38.6478 50.4724 38.8235 50.3846 38.8235C50.2967 38.8235 50.2967 38.7356 50.2967 38.6478C50.2967 38.56 50.2967 38.4721 50.2967 38.2965C50.2967 38.1208 50.4724 37.9451 50.5603 37.9451C50.6481 38.0329 50.6481 38.2086 50.6481 38.4721Z" fill="#272727"/>
<path d="M29.916 49.2762L42.3904 44.1816L31.3216 47.9587L29.916 49.2762Z" fill="#272727"/>
<path d="M41.1606 8.60774V21.1686C41.0727 21.1686 40.9849 21.2564 40.897 21.2564C40.5456 21.4321 40.1942 21.5199 39.9307 21.6077V9.13477C39.9307 7.99287 38.1737 7.02666 35.714 6.58747C37.7345 7.02666 39.0522 7.90504 39.0522 8.95909V21.9591C38.7887 22.0469 38.5251 22.2226 38.1737 22.3104C37.8223 22.3104 37.5588 22.3104 37.2074 22.3104C36.9439 22.3104 36.5925 22.3104 36.2411 22.3104H36.0654V8.08071C36.0654 7.55368 35.8018 7.02666 35.3626 6.58747C35.0991 6.32395 34.8355 6.14828 34.4841 5.88477H34.572C38.1737 5.88477 41.1606 7.1145 41.1606 8.60774Z" fill="#EF9C1C"/>
<path d="M39.0522 8.95951V21.9595C38.7886 22.0474 38.5251 22.223 38.1737 22.3109C37.8223 22.3109 37.5587 22.3109 37.2074 22.3109C36.9438 22.3109 36.5924 22.3109 36.241 22.3109L36.1532 22.223L36.0653 22.1352V8.08113C36.0653 7.55411 35.8018 7.02708 35.3625 6.58789C35.4504 6.58789 35.6261 6.58789 35.7139 6.67573C37.7344 7.11492 39.0522 7.9933 39.0522 8.95951Z" fill="#EF9C1C"/>
<path d="M35.0111 8.25612V22.398C34.7476 22.398 34.3962 22.398 34.1326 22.398H34.0448C33.7812 22.398 33.6055 22.398 33.342 22.398V9.22234C33.342 7.7291 30.3552 6.49937 26.6656 6.49937C26.4899 6.49937 26.3142 6.49937 26.1385 6.49937C29.4767 6.67504 32.1121 7.81693 32.1121 9.22234V22.6615C32.0243 22.7494 31.9364 22.8372 31.8486 22.8372C31.6729 22.0467 31.4972 21.6075 31.4093 21.344C31.4093 21.2561 31.3215 21.2561 31.3215 21.1683C31.2336 21.1683 31.2337 21.0804 31.1458 21.0804C30.7944 20.9926 29.6524 20.7291 27.8954 20.5534C26.6656 20.3777 25.0843 20.2899 23.3274 20.3777C22.8003 20.3777 22.2732 20.4656 21.7461 20.4656V8.16828C21.7461 7.81693 21.9218 7.46558 22.2732 7.11423C22.361 7.02639 22.6246 6.85072 22.8881 6.67504C24.118 5.97234 26.1385 5.44531 28.4225 5.44531C32.0243 5.53315 35.0111 6.67504 35.0111 8.25612Z" fill="#272727"/>
<path d="M32.1121 9.22292V22.6621C32.0243 22.75 31.9364 22.8378 31.8486 22.8378C31.6729 22.0473 31.4972 21.6081 31.4093 21.3445C31.4093 21.2567 31.3215 21.2567 31.3215 21.1689C31.2336 21.1689 31.2336 21.081 31.1458 21.081C30.7944 20.9932 29.6524 20.7297 27.8954 20.554C26.6656 20.3783 25.0843 20.2905 23.3274 20.3783C22.8003 20.3783 22.2732 20.4662 21.7461 20.4662V8.16887C21.7461 7.81752 21.9218 7.46616 22.2732 7.11481C23.3274 6.76346 24.5572 6.49995 26.0506 6.41211H26.1385C29.4767 6.67562 32.1121 7.81752 32.1121 9.22292Z" fill="#272727"/>
<path d="M32.1121 9.22297V22.6622C32.0243 22.75 31.9364 22.8378 31.8486 22.8378C31.6729 22.0473 31.4972 21.6081 31.4093 21.3446C31.4093 21.2568 31.3215 21.2568 31.3215 21.1689C31.2336 21.1689 31.2336 21.0811 31.1458 21.0811C30.7944 20.9932 29.6524 20.7297 27.8954 20.5541C26.6656 20.3784 25.0843 20.2905 23.3274 20.3784C22.8003 20.3784 22.2732 20.4662 21.7461 20.4662V8.16892C21.7461 7.81757 21.9218 7.46622 22.2732 7.11487C22.361 7.02703 22.6246 6.85135 22.8881 6.67568C23.6787 6.58784 24.5572 6.5 25.4357 6.5C25.6114 6.5 25.7871 6.5 25.9628 6.5H26.0506C29.4767 6.67568 32.1121 7.81757 32.1121 9.22297Z" fill="#272727"/>
</g>
<defs>
<clipPath id="clip0">
<rect width="60" height="78" fill="white" transform="translate(0.92627)"/>
</clipPath>
</defs>
</svg>
