<svg width="45" height="45" viewBox="0 0 45 45" fill="none" xmlns="http://www.w3.org/2000/svg">
<path d="M3.09656 3.18566C9.55337 4.11487 16.0761 4.5131 22.5329 4.5131C28.9897 4.5131 35.5124 4.0485 41.9692 3.18566V41.6149C35.5124 40.752 28.9897 40.2874 22.5329 40.2874C16.0761 40.2874 9.55337 40.752 3.09656 41.6149V3.18566ZM44.2752 0.597168C37.0936 1.72549 29.7803 2.32283 22.5329 2.32283C15.2854 2.32283 8.038 1.72549 0.856445 0.597168C0.856445 15.1989 0.856445 29.7343 0.856445 44.3361C8.038 43.2078 15.2854 42.6768 22.5329 42.6768C29.7803 42.6768 37.0277 43.2078 44.2093 44.3361C44.2752 29.7343 44.2752 15.1326 44.2752 0.597168Z" fill="#F09C1A"/>
<path d="M24.0484 14.8672V31.0619H19.9635V22.3008L16.0762 28.8052H15.6809L11.7937 22.3008V30.9955H7.70874V14.8672H11.7937L15.8127 21.7698L19.8976 14.8672H24.0484Z" fill="white"/>
<path d="M33.1407 21.5044C34.4584 21.5044 35.5785 21.969 36.5009 22.8982C37.4233 23.8274 37.8845 24.9557 37.8845 26.2831C37.8845 27.6105 37.4233 28.7389 36.5009 29.6681C35.5785 30.5973 34.4584 31.0619 33.1407 31.0619H27.3428V14.8672H36.5668V15.9955H28.5287V21.5044H33.1407ZM33.1407 29.8672C34.129 29.8672 34.9196 29.5353 35.6444 28.8052C36.3032 28.0752 36.6986 27.2123 36.6986 26.2167C36.6986 25.2212 36.3691 24.3583 35.6444 23.6946C34.9855 22.9645 34.129 22.6327 33.1407 22.6327H28.5287V29.8672H33.1407Z" fill="white"/>
</svg>
