<svg width="262" height="45" viewBox="0 0 262 45" fill="none" xmlns="http://www.w3.org/2000/svg">
<path d="M74.5514 15.6V31H71.5374V21.012L67.2034 28.162H66.8514L62.5174 21.034V31H59.4814V15.6H62.6054L67.0274 22.882L71.4274 15.6H74.5514Z" fill="white"/>
<path d="M80.4569 28.096H86.9469V31H77.4209V15.6H86.8369V18.504H80.4569V21.782H86.2869V24.642H80.4569V28.096Z" fill="white"/>
<path d="M104.093 22.728V23.916C104.093 26.116 103.389 27.898 101.981 29.262C100.573 30.626 98.7548 31.308 96.5255 31.308C94.1495 31.308 92.1768 30.538 90.6075 28.998C89.0528 27.4433 88.2755 25.5513 88.2755 23.322C88.2755 21.078 89.0455 19.1787 90.5855 17.624C92.1402 16.0693 94.0615 15.292 96.3495 15.292C97.7868 15.292 99.0995 15.622 100.287 16.282C101.475 16.9273 102.399 17.7927 103.059 18.878L100.463 20.374C100.097 19.7433 99.5395 19.23 98.7915 18.834C98.0582 18.438 97.2368 18.24 96.3275 18.24C94.8608 18.24 93.6508 18.724 92.6975 19.692C91.7588 20.6453 91.2895 21.8553 91.2895 23.322C91.2895 24.774 91.7662 25.9767 92.7195 26.93C93.6875 27.8687 94.9635 28.338 96.5475 28.338C97.7208 28.338 98.6888 28.0813 99.4515 27.568C100.229 27.04 100.757 26.3213 101.035 25.412H96.3715V22.728H104.093Z" fill="white"/>
<path d="M115.594 31L114.67 28.228H108.532L107.608 31H104.33L109.72 15.6H113.482L118.894 31H115.594ZM109.5 25.39H113.724L111.612 19.098L109.5 25.39Z" fill="white"/>
<path d="M129.458 15.6V18.504H125.3V31H122.264V18.504H118.128V15.6H129.458Z" fill="white"/>
<path d="M143.23 28.998C141.676 30.538 139.784 31.308 137.554 31.308C135.325 31.308 133.433 30.538 131.878 28.998C130.338 27.4433 129.568 25.544 129.568 23.3C129.568 21.056 130.338 19.164 131.878 17.624C133.433 16.0693 135.325 15.292 137.554 15.292C139.784 15.292 141.676 16.0693 143.23 17.624C144.785 19.164 145.562 21.056 145.562 23.3C145.562 25.544 144.785 27.4433 143.23 28.998ZM134.012 26.93C134.966 27.8687 136.146 28.338 137.554 28.338C138.962 28.338 140.143 27.8687 141.096 26.93C142.05 25.9767 142.526 24.7667 142.526 23.3C142.526 21.8333 142.05 20.6233 141.096 19.67C140.143 18.7167 138.962 18.24 137.554 18.24C136.146 18.24 134.966 18.7167 134.012 19.67C133.059 20.6233 132.582 21.8333 132.582 23.3C132.582 24.7667 133.059 25.9767 134.012 26.93Z" fill="white"/>
<path d="M156.606 15.6H159.642V31H157.332L150.732 21.584V31H147.696V15.6H150.006L156.606 24.994V15.6Z" fill="white"/>
<path d="M171.805 23.014C173.154 23.7913 173.829 24.9647 173.829 26.534C173.829 27.8393 173.367 28.91 172.443 29.746C171.519 30.582 170.382 31 169.033 31H162.499V15.6H168.571C169.891 15.6 170.998 16.0107 171.893 16.832C172.802 17.6387 173.257 18.6727 173.257 19.934C173.257 21.21 172.773 22.2367 171.805 23.014ZM168.571 18.438H165.535V21.826H168.571C169.04 21.826 169.429 21.6647 169.737 21.342C170.06 21.0193 170.221 20.616 170.221 20.132C170.221 19.648 170.067 19.2447 169.759 18.922C169.451 18.5993 169.055 18.438 168.571 18.438ZM169.033 28.162C169.546 28.162 169.972 27.9933 170.309 27.656C170.646 27.304 170.815 26.864 170.815 26.336C170.815 25.8227 170.646 25.3973 170.309 25.06C169.972 24.708 169.546 24.532 169.033 24.532H165.535V28.162H169.033Z" fill="white"/>
<path d="M178.855 28.096H185.345V31H175.819V15.6H185.235V18.504H178.855V21.782H184.685V24.642H178.855V28.096Z" fill="white"/>
<path d="M197.671 15.6V18.504H193.513V31H190.477V18.504H186.341V15.6H197.671Z" fill="white"/>
<path d="M211.443 28.998C209.889 30.538 207.997 31.308 205.767 31.308C203.538 31.308 201.646 30.538 200.091 28.998C198.551 27.4433 197.781 25.544 197.781 23.3C197.781 21.056 198.551 19.164 200.091 17.624C201.646 16.0693 203.538 15.292 205.767 15.292C207.997 15.292 209.889 16.0693 211.443 17.624C212.998 19.164 213.775 21.056 213.775 23.3C213.775 25.544 212.998 27.4433 211.443 28.998ZM202.225 26.93C203.179 27.8687 204.359 28.338 205.767 28.338C207.175 28.338 208.356 27.8687 209.309 26.93C210.263 25.9767 210.739 24.7667 210.739 23.3C210.739 21.8333 210.263 20.6233 209.309 19.67C208.356 18.7167 207.175 18.24 205.767 18.24C204.359 18.24 203.179 18.7167 202.225 19.67C201.272 20.6233 200.795 21.8333 200.795 23.3C200.795 24.7667 201.272 25.9767 202.225 26.93Z" fill="white"/>
<path d="M224.819 15.6H227.855V31H225.545L218.945 21.584V31H215.909V15.6H218.219L224.819 24.994V15.6Z" fill="white"/>
<path d="M233.55 30.736C233.183 31.1027 232.743 31.286 232.23 31.286C231.717 31.286 231.277 31.1027 230.91 30.736C230.543 30.3693 230.36 29.9293 230.36 29.416C230.36 28.9027 230.543 28.4627 230.91 28.096C231.277 27.7293 231.717 27.546 232.23 27.546C232.743 27.546 233.183 27.7293 233.55 28.096C233.917 28.4627 234.1 28.9027 234.1 29.416C234.1 29.9293 233.917 30.3693 233.55 30.736Z" fill="white"/>
<path d="M245.047 31L241.945 25.654H239.635V31H236.599V15.6H242.759C244.181 15.6 245.391 16.0987 246.389 17.096C247.386 18.0933 247.885 19.296 247.885 20.704C247.885 21.6573 247.613 22.5447 247.071 23.366C246.528 24.1727 245.809 24.7813 244.915 25.192L248.325 31H245.047ZM239.635 18.438V22.992H242.759C243.331 22.992 243.822 22.772 244.233 22.332C244.643 21.8773 244.849 21.3347 244.849 20.704C244.849 20.0733 244.643 19.538 244.233 19.098C243.822 18.658 243.331 18.438 242.759 18.438H239.635Z" fill="white"/>
<path d="M255.747 31.308C254.031 31.308 252.623 30.824 251.523 29.856C250.423 28.888 249.873 27.59 249.873 25.962V15.6H252.887V25.72C252.887 26.5267 253.114 27.1647 253.569 27.634C254.038 28.1033 254.764 28.338 255.747 28.338C256.73 28.338 257.448 28.1033 257.903 27.634C258.372 27.1647 258.607 26.5267 258.607 25.72V15.6H261.643V25.962C261.643 27.59 261.093 28.888 259.993 29.856C258.893 30.824 257.478 31.308 255.747 31.308Z" fill="white"/>
<path d="M3.09656 3.18591C9.55337 4.11511 16.0761 4.51334 22.5329 4.51334C28.9897 4.51334 35.5124 4.04874 41.9692 3.18591V41.6151C35.5124 40.7523 28.9897 40.2877 22.5329 40.2877C16.0761 40.2877 9.55337 40.7523 3.09656 41.6151V3.18591ZM44.2752 0.597412C37.0936 1.72573 29.7803 2.32308 22.5329 2.32308C15.2854 2.32308 8.038 1.72573 0.856445 0.597412C0.856445 15.1992 0.856445 29.7346 0.856445 44.3363C8.038 43.208 15.2854 42.6771 22.5329 42.6771C29.7803 42.6771 37.0277 43.208 44.2093 44.3363C44.2752 29.7346 44.2752 15.1328 44.2752 0.597412Z" fill="#F09C1A"/>
<path d="M24.0482 14.8673V31.062H19.9633V22.3009L16.076 28.8054H15.6807L11.7934 22.3009V30.9956H7.7085V14.8673H11.7934L15.8125 21.77L19.8974 14.8673H24.0482Z" fill="white"/>
<path d="M33.1402 21.5045C34.458 21.5045 35.578 21.9691 36.5004 22.8983C37.4228 23.8275 37.884 24.9558 37.884 26.2832C37.884 27.6107 37.4228 28.739 36.5004 29.6682C35.578 30.5974 34.458 31.062 33.1402 31.062H27.3423V14.8673H36.5663V15.9956H28.5282V21.5045H33.1402ZM33.1402 29.8673C34.1285 29.8673 34.9192 29.5355 35.6439 28.8054C36.3028 28.0753 36.6981 27.2124 36.6981 26.2169C36.6981 25.2213 36.3686 24.3585 35.6439 23.6947C34.985 22.9647 34.1285 22.6328 33.1402 22.6328H28.5282V29.8673H33.1402Z" fill="white"/>
</svg>
