<svg width="92" height="92" viewBox="0 0 92 92" fill="none" xmlns="http://www.w3.org/2000/svg">
<g clip-path="url(#clip0)">
<path d="M45.9999 14.7437C35.3167 14.7437 26.6562 23.4041 26.6562 34.0873C26.6562 44.7706 35.3167 53.431 45.9999 53.431C56.6563 53.3667 65.2791 44.7437 65.3436 34.0873C65.3436 23.4041 56.6832 14.7437 45.9999 14.7437ZM45.9999 48.7131C37.9224 48.7131 31.3742 42.1649 31.3742 34.0873C31.3742 26.0098 37.9224 19.4616 45.9999 19.4616C54.0508 19.5257 60.5613 26.0365 60.6257 34.0873C60.6257 42.1649 54.0774 48.7131 45.9999 48.7131Z" fill="#EF9C1C"/>
<path d="M86.9284 87.2823H48.0054L71.3592 62.8669C85.4029 48.3354 85.5587 25.3361 71.713 10.6156C65.2208 3.81859 56.2251 -0.0182216 46.8257 6.50691e-05C37.186 -0.00467592 27.9702 3.96331 21.3488 10.9694C7.3051 25.5009 7.14933 48.5002 20.995 63.2207L43.9952 87.2823H5.07187C3.769 87.2823 2.71289 88.3385 2.71289 89.6413C2.71289 90.9442 3.769 92.0003 5.07187 92.0003H86.9284C88.2313 92.0003 89.2874 90.9442 89.2874 89.6413C89.2874 88.3385 88.2313 87.2823 86.9284 87.2823ZM24.2977 60.0361C12.2669 47.5334 12.5028 27.0104 24.6515 14.272C30.4337 8.20062 38.4419 4.75031 46.8257 4.71825C54.9807 4.68123 62.7898 8.00963 68.4103 13.9183C80.4412 26.5388 80.2052 47.0618 68.0566 59.6823L46.0001 82.6825L24.2977 60.0361Z" fill="#EF9C1C"/>
</g>
<defs>
<clipPath id="clip0">
<rect width="92" height="92" fill="white"/>
</clipPath>
</defs>
</svg>
