<svg width="92" height="92" viewBox="0 0 92 92" fill="none" xmlns="http://www.w3.org/2000/svg">
<path d="M83.1833 8.30554H18.8046C13.9491 8.32684 10.0093 12.2667 10.0093 17.1435V17.25H8.81667C3.96111 17.25 0.0212963 21.1685 0 26.0241V74.8565C0.0212963 79.712 3.93982 83.6731 8.81667 83.6944H73.1954C78.0509 83.6731 81.9907 79.7333 81.9907 74.8565V74.75H83.1833C88.0389 74.75 91.9787 70.8315 92 65.9759V17.1435C91.9787 12.2667 88.0602 8.32684 83.1833 8.30554ZM73.1954 79.4352H8.81667C6.3037 79.4139 4.28056 77.3694 4.25926 74.8565V26.0241C4.28056 23.5324 6.3037 21.5092 8.81667 21.5092H73.1954C75.687 21.5092 77.7315 23.5111 77.7315 26.0241V38.2055C77.3482 38.2907 76.9648 38.3333 76.6028 38.3333H64.3148C57.6278 38.3333 52.1972 43.7639 52.1972 50.4509C52.1972 57.1379 57.6278 62.5685 64.3148 62.5898H76.5815C76.9648 62.5685 77.3482 62.5259 77.7102 62.4833L77.7315 74.8565C77.7315 77.3694 75.7083 79.4139 73.1954 79.4352ZM87.7407 65.9759C87.7194 68.4676 85.6963 70.4907 83.1833 70.4907H81.9907V60.95C82.9065 60.3324 83.737 59.5657 84.4398 58.7139L87.7407 54.4546V65.9759ZM81.075 56.137C80.0102 57.5213 78.3491 58.3305 76.6028 58.3518H64.3148C59.9704 58.3305 56.4565 54.8167 56.4565 50.4722C56.4565 46.1278 59.9704 42.6139 64.3148 42.5926H76.5815C78.0509 42.5926 79.4991 42.2731 80.8195 41.6342C82.225 40.9741 83.4602 39.9731 84.4185 38.7379L87.7194 34.4787L87.7407 47.4907L81.075 56.137ZM87.7407 27.5148L81.9907 34.9259V26.0241C81.9907 21.1685 78.0509 17.25 73.1954 17.25H14.2685V17.1435C14.2685 14.6305 16.2917 12.5861 18.8046 12.5648H83.1833C85.6963 12.5861 87.7194 14.6305 87.7407 17.1435V27.5148Z" fill="#EF9C1C"/>
<path d="M69.0855 48.3425H63.9744C62.8031 48.3425 61.8447 49.3009 61.8447 50.4722C61.8447 51.6435 62.8031 52.6018 63.9744 52.6018H69.0855C70.2568 52.6018 71.2151 51.6435 71.2151 50.4722C71.2151 49.3009 70.2568 48.3425 69.0855 48.3425Z" fill="#EF9C1C"/>
</svg>
