<svg width="92" height="92" viewBox="0 0 92 92" fill="none" xmlns="http://www.w3.org/2000/svg">
<path d="M82.5641 12.9742C82.4417 11.6339 81.3149 10.6096 79.9692 10.6153H18.7538C17.5884 10.485 16.5381 11.3239 16.4079 12.4893C16.3986 12.5719 16.3943 12.6552 16.3948 12.7383L15.9229 68.4102H2.5949C1.17306 68.6285 0.0939167 69.8056 0 71.241V75.1333C0.178351 83.5861 6.88685 90.4494 15.3333 90.8206H66.9949C75.5935 90.8208 82.5643 83.8504 82.5645 75.2519C82.5645 75.2124 82.5643 75.1728 82.5641 75.1336V12.9742ZM15.9232 86.1026C9.82581 86.104 4.84642 81.2296 4.71796 75.1333V73.1281H50.718V75.1333C50.7301 79.2799 52.4342 83.2418 55.4359 86.1026H15.9232ZM77.8461 75.1333C77.8461 81.3217 72.8295 86.3386 66.6409 86.3386C60.4526 86.3386 55.4357 81.3219 55.4357 75.1333V71.241C55.4357 69.9435 54.6101 68.4102 53.3126 68.4102H20.6411L21.113 15.3332H77.8463V75.1333H77.8461Z" fill="#EF9C1C"/>
<path d="M28.6617 31.8461H46.9439C48.2467 31.8461 49.3028 30.79 49.3028 29.4871C49.3028 28.1843 48.2467 27.1282 46.9439 27.1282H28.6617C27.3588 27.1282 26.3027 28.1843 26.3027 29.4871C26.3027 30.79 27.3588 31.8461 28.6617 31.8461Z" fill="#EF9C1C"/>
<path d="M28.6617 44.8206H65.8155C67.1183 44.8206 68.1744 43.7645 68.1744 42.4616C68.1744 41.1588 67.1183 40.1027 65.8155 40.1027H28.6617C27.3588 40.1027 26.3027 41.1588 26.3027 42.4616C26.3027 43.7645 27.3588 44.8206 28.6617 44.8206Z" fill="#EF9C1C"/>
<path d="M28.6617 58.9744H65.8155C67.1183 58.9744 68.1744 57.9183 68.1744 56.6154C68.1744 55.3126 67.1183 54.2565 65.8155 54.2565H28.6617C27.3588 54.2565 26.3027 55.3126 26.3027 56.6154C26.3027 57.9183 27.3588 58.9744 28.6617 58.9744Z" fill="#EF9C1C"/>
<path d="M89.4049 1.17959H28.1895C26.8867 1.17959 25.8306 2.2357 25.8306 3.53857C25.8306 4.84144 26.8867 5.89755 28.1895 5.89755H87.2819V65.6977C87.2819 67.0005 88.338 68.0566 89.6409 68.0566C90.9437 68.0566 91.9999 67.0005 91.9999 65.6977V3.53857C91.8775 2.19822 90.7509 1.17394 89.4049 1.17959Z" fill="#EF9C1C"/>
</svg>
