<svg width="92" height="92" viewBox="0 0 92 92" fill="none" xmlns="http://www.w3.org/2000/svg">
<g clip-path="url(#clip0)">
<path d="M91.9966 77.5244V26.4793C92.1244 21.8961 88.5126 18.077 83.9293 17.9493C83.739 17.9439 83.5484 17.9452 83.3581 17.9529H65.0717V14.4753C65.1956 9.7061 61.4298 5.73933 56.6606 5.61543C56.5848 5.6135 56.509 5.61243 56.4334 5.61243H35.5665C30.7955 5.61071 26.9267 9.47698 26.9252 14.2479C26.9252 14.3237 26.9261 14.3995 26.9282 14.4751V17.9529H8.64176C4.06043 17.7655 0.194588 21.327 0.00691165 25.9081C-0.000818738 26.0984 -0.00210714 26.2889 0.00326119 26.4793V77.5244C-0.12064 82.2936 3.64513 86.2603 8.41435 86.3842C8.49015 86.3862 8.56596 86.3873 8.64154 86.3873H83.3581C88.1291 86.389 91.9979 82.5227 91.9994 77.7518C91.9996 77.676 91.9985 77.6002 91.9966 77.5244ZM35.3361 10.1061C35.4127 10.1021 35.4896 10.0999 35.5665 10.1001H56.4334C58.7259 10.0967 60.587 11.9524 60.5904 14.2449C60.5906 14.3218 60.5885 14.3987 60.5844 14.4753V17.9531H31.4157V14.4753C31.2918 12.1863 33.047 10.23 35.3361 10.1061ZM83.5887 81.8938C83.5121 81.8978 83.4352 81.9 83.3583 81.8998H8.64176C6.34927 81.9032 4.48817 80.0475 4.48474 77.755C4.48452 77.6781 4.48667 77.6012 4.49075 77.5246V62.828C5.72117 63.6309 7.17427 64.0237 8.64176 63.95H31.4157V70.4569C31.6233 71.8092 32.743 72.8357 34.1082 72.925H57.8918C59.2571 72.8357 60.3767 71.8092 60.5844 70.4569V63.95H83.3583C84.8258 64.0239 86.2789 63.6311 87.5093 62.828V77.5246C87.633 79.8136 85.8778 81.7699 83.5887 81.8938ZM35.9032 68.4373V57.2186H56.0969V68.4373H35.9032ZM83.5887 59.4563C83.5121 59.4604 83.4352 59.4625 83.3583 59.4623H60.5842V54.6383C60.5842 53.4043 59.1257 52.7311 57.8916 52.7311H34.1082C32.8742 52.7311 31.4157 53.4043 31.4157 54.6383V59.4623H8.64176C6.34927 59.4657 4.48817 57.61 4.48474 55.3175C4.48452 55.2407 4.48667 55.1638 4.49075 55.0871V26.4793C4.35826 24.3769 5.95523 22.5652 8.05768 22.4327C8.25223 22.4204 8.44764 22.423 8.64176 22.4406H83.3583C85.4563 22.2506 87.3111 23.7973 87.5012 25.8952C87.5188 26.0894 87.5214 26.2848 87.5091 26.4793V55.0869C87.633 57.3762 85.8778 59.3324 83.5887 59.4563Z" fill="#EF9C1C"/>
</g>
<defs>
<clipPath id="clip0">
<rect width="92" height="92" fill="white"/>
</clipPath>
</defs>
</svg>
