<svg width="45" height="45" viewBox="0 0 45 45" fill="none" xmlns="http://www.w3.org/2000/svg">
<g clip-path="url(#clip0)">
<path d="M43.9751 38.0903H42.3978V34.5739C42.3978 34.0213 41.9055 33.5692 41.3529 33.5692H39.0823V18.097H41.9557C42.4982 18.1071 42.9503 17.675 42.9604 17.1325C42.9704 16.8311 42.8298 16.5297 42.5887 16.3388L23.1379 0.404483C22.7662 0.103077 22.2337 0.103077 21.862 0.404483L2.41125 16.3589C2.0797 16.6201 1.95914 17.0622 2.09979 17.454C2.24045 17.8458 2.62223 18.1071 3.0442 18.097H5.92765V33.5692H3.65706C3.10448 33.5692 2.61218 34.0213 2.61218 34.5739V38.0903H1.03483C0.482249 38.0903 0 38.5022 0 39.0548V43.8471C0 44.3997 0.482249 44.8217 1.03483 44.8217H43.9651C44.5177 44.8217 44.9999 44.3997 44.9999 43.8471V39.0548C45.0099 38.5022 44.5277 38.0903 43.9751 38.0903ZM5.85732 16.0876L22.505 2.444L39.1526 16.0876H5.85732ZM37.0729 18.097V33.5692H35.365V18.097H37.0729ZM33.3556 18.097V33.5692H30.1406V18.097H33.3556ZM28.1312 18.097V33.5692H26.4233V18.097H28.1312ZM24.4139 18.097V33.5692H20.5961V18.097H24.4139ZM18.5867 18.097V33.5692H16.8787V18.097H18.5867ZM14.8694 18.097V33.5692H11.6544V18.097H14.8694ZM9.64499 18.097V33.5692H7.93702V18.097H9.64499ZM4.62156 35.5786H40.3884V38.0903H4.62156V35.5786ZM43.0006 42.8123H2.00937V40.0996H43.0006V42.8123Z" fill="#EF9C1C"/>
<path d="M22.5046 7.00528C20.3244 7.00528 18.5562 8.77353 18.5562 10.9537C18.5562 13.1339 20.3244 14.9021 22.5046 14.9021C24.6847 14.9021 26.453 13.1339 26.453 10.9537C26.453 10.9537 26.453 10.9537 26.453 10.9437C26.453 8.77353 24.6847 7.00528 22.5046 7.00528ZM22.5046 12.8927C21.4295 12.8927 20.5655 12.0287 20.5655 10.9537C20.5655 9.87868 21.4295 9.01465 22.5046 9.01465C23.5796 9.01465 24.4436 9.87868 24.4436 10.9537C24.4436 12.0187 23.5796 12.8927 22.5046 12.8927Z" fill="#EF9C1C"/>
</g>
<defs>
<clipPath id="clip0">
<rect width="45" height="45" fill="white"/>
</clipPath>
</defs>
</svg>
