<svg width="45" height="45" viewBox="0 0 45 45" fill="none" xmlns="http://www.w3.org/2000/svg">
<g clip-path="url(#clip0)">
<path d="M38.8926 13.9287H30.5364V4.12615C30.5364 1.76923 28.4472 0.00153925 26.0904 0.00153925H7.82438C5.63601 -0.0594651 3.81265 1.66516 3.75164 3.85343C3.74908 3.94437 3.74969 4.03531 3.75338 4.12615V40.8723C3.66378 43.0596 5.36431 44.9055 7.55165 44.9951C7.64249 44.9988 7.73343 44.9994 7.82438 44.9968H26.1439C28.4793 45.0862 30.4451 43.2656 30.5345 40.9302C30.5352 40.911 30.5358 40.8916 30.5364 40.8723V32.1411H38.8926C40.2854 32.1411 41.2495 30.7484 41.2495 29.3557V16.6607C41.2494 15.2678 40.2853 13.9287 38.8926 13.9287ZM7.5455 2.14807C7.63818 2.13967 7.73149 2.13843 7.82438 2.14428H26.0903C27.2688 2.14428 28.3936 2.94779 28.3936 4.12625V5.89394H5.89602V4.12615C5.80528 3.12435 6.5438 2.23881 7.5455 2.14807ZM28.3937 40.8723C28.338 42.0247 27.3588 42.9138 26.2064 42.8582C26.1856 42.8572 26.1648 42.8558 26.144 42.8542H7.82438C6.82052 42.9174 5.95549 42.1549 5.89223 41.1511C5.88638 41.0582 5.88761 40.965 5.89602 40.8722V36.9619H28.3937V40.8723ZM28.3937 34.8193H5.89602V8.03648H28.3937V13.9287H17.3056C15.81 14.0031 14.5984 15.169 14.4666 16.6605V29.3556C14.5955 30.8576 15.8014 32.0407 17.3056 32.141H28.3937V34.8193ZM39.1068 29.3556C39.1068 29.5699 39.1068 29.9984 38.8925 29.9984H17.3056C16.9769 29.9208 16.7128 29.677 16.6092 29.3556V24.1062H39.1069V29.3556H39.1068ZM39.1068 21.9635H16.6092V20.3566H39.1069V21.9635H39.1068ZM39.1068 16.6605V18.214H16.6092V16.6605C16.6092 16.3927 17.0913 16.0713 17.3056 16.0713H38.8926C39.1604 16.0713 39.1068 16.4463 39.1068 16.6605Z" fill="#EF9C1C"/>
<path d="M19.0196 27.8558H24.3225C24.9142 27.8558 25.3939 27.3762 25.3939 26.7845C25.3939 26.1928 24.9142 25.7132 24.3225 25.7132H19.0196C18.4279 25.7132 17.9482 26.1928 17.9482 26.7845C17.9482 27.3762 18.4279 27.8558 19.0196 27.8558Z" fill="#EF9C1C"/>
</g>
<defs>
<clipPath id="clip0">
<rect width="45" height="45" fill="white"/>
</clipPath>
</defs>
</svg>
