<svg width="45" height="45" viewBox="0 0 45 45" fill="none" xmlns="http://www.w3.org/2000/svg">
<path d="M44.8442 29.8133C44.5451 29.3695 43.9566 29.2537 43.5128 29.5528L36.3153 34.2707H26.8409V30.315H36.6047C36.8074 30.315 37.01 30.2378 37.1643 30.122L44.5933 24.7577C45.0275 24.449 45.124 23.8411 44.8056 23.4166C44.4969 22.9825 43.889 22.886 43.4645 23.2044L36.296 28.3854H26.8409V24.3332H36.6047C36.817 24.3428 37.0293 24.2753 37.2029 24.1499L44.6319 18.2935C45.0468 17.9558 45.1143 17.348 44.7766 16.9331C44.4486 16.5183 43.8504 16.4507 43.4356 16.7691L36.2671 22.4036H26.8409V18.5444H36.6047C36.8459 18.5347 37.0871 18.4382 37.2608 18.2742L44.6898 11.3855C44.9793 11.1057 45.0757 10.6812 44.931 10.3049C44.7863 9.92863 44.4293 9.67778 44.0337 9.66813H34.8295C34.8198 9.66813 34.8006 9.49447 34.7716 9.41728C34.6269 9.05065 34.2699 8.7998 33.8743 8.7998H19.1128C18.8716 8.7998 18.6304 8.89629 18.4567 9.0603L17.8103 9.66813H8.39381C8.15261 9.67778 7.91141 9.77426 7.73774 9.94792L0.308738 16.827C0.0192961 17.1068 -0.0771845 17.5313 0.0675364 17.9076C0.212257 18.2839 0.569236 18.5347 0.964806 18.5444H10.1498V22.4036H0.964806C0.434163 22.4036 0 22.8377 0 23.3684C0 23.899 0.434163 24.3332 0.964806 24.3332H10.1498V28.3854H0.964806C0.434163 28.3854 0 28.8195 0 29.3502C0 29.8808 0.434163 30.315 0.964806 30.315H10.1498V34.2707H0.964806C0.434163 34.2707 0 34.7049 0 35.2355C0 35.7662 0.434163 36.2003 0.964806 36.2003H36.6047C36.7977 36.1907 36.981 36.1328 37.1354 36.017L44.5644 31.1544C45.0082 30.8649 45.1336 30.2571 44.8442 29.8133ZM33.3726 11.5977H41.5735L36.2285 16.6147H28.018L33.334 11.6363C33.3437 11.6363 33.3533 11.5977 33.3726 11.5977ZM10.4199 16.6147H3.42506L8.77009 11.5977H15.736L10.4681 16.5376C10.4488 16.5472 10.4392 16.5183 10.4199 16.6147ZM24.9113 17.2419V34.2707H12.0794V17.6664L18.6883 11.5013L19.4891 10.7294H31.4237L25.22 16.5086C25.0174 16.7016 24.9113 16.9621 24.9113 17.2419Z" fill="#EF9C1C"/>
</svg>
