<svg width="92" height="92" viewBox="0 0 92 92" fill="none" xmlns="http://www.w3.org/2000/svg">
<g clip-path="url(#clip0)">
<path d="M91.0674 34.7777C90.5042 34.424 89.7986 34.3977 89.2036 34.6934L68.9826 44.8039V36.4074C68.9826 35.7431 68.6382 35.1274 68.073 34.7775C67.5079 34.4238 66.8006 34.3975 66.2092 34.6932L45.9884 44.8039V36.4074C45.9884 35.7431 45.644 35.1274 45.0788 34.7775C44.5137 34.4238 43.8064 34.3975 43.2151 34.6932L26.9341 42.8337L22.9773 13.1606C22.8501 12.2082 22.038 11.4971 21.0779 11.4971H9.58085C8.62084 11.4971 7.80868 12.2082 7.6815 13.1606L1.02917 63.0488C0.34617 68.178 0 73.3969 0 78.5635C0 79.6226 0.857072 80.4797 1.91624 80.4797H28.7427H90.0605C91.1197 80.4797 91.9767 79.6226 91.9767 78.5635V36.4076C91.9767 35.7432 91.6324 35.1276 91.0674 34.7777ZM3.84919 76.6474C3.9241 72.278 4.25159 67.8823 4.82788 63.5542L11.2594 15.3294H19.3995L25.8311 63.554C26.4074 67.8823 26.7349 72.278 26.8098 76.6472H3.84919V76.6474ZM28.8881 57.4855H34.4913V61.3178H29.3988L28.8881 57.4855ZM88.1444 76.6474H30.5954C30.5321 72.8108 30.2772 68.9671 29.8389 65.1503H36.4075C37.4667 65.1503 38.3238 64.2932 38.3238 63.2341V55.5693C38.3238 54.5101 37.4667 53.653 36.4075 53.653H28.377L27.47 46.8512L42.1562 39.5082V47.9047C42.1562 48.569 42.5006 49.1846 43.0658 49.5345C43.629 49.8845 44.3326 49.9125 44.9296 49.6188L65.1506 39.5084V47.9048C65.1506 48.5691 65.495 49.1848 66.0601 49.5347C66.6215 49.8847 67.3252 49.9127 67.9239 49.619L88.145 39.5085V76.6474H88.1444Z" fill="#EF9C1C"/>
<path d="M59.4016 53.6532H47.9045C46.8454 53.6532 45.9883 54.5103 45.9883 55.5694V63.2341C45.9883 64.2932 46.8454 65.1503 47.9045 65.1503H59.4016C60.4608 65.1503 61.3179 64.2932 61.3179 63.2341V55.5693C61.3177 54.5103 60.4608 53.6532 59.4016 53.6532ZM57.4854 61.3178H49.8206V57.4855H57.4854V61.3178Z" fill="#EF9C1C"/>
<path d="M70.8987 65.1503H82.3958C83.4549 65.1503 84.312 64.2932 84.312 63.234V55.5692C84.312 54.5101 83.4549 53.653 82.3958 53.653H70.8987C69.8395 53.653 68.9824 54.5101 68.9824 55.5692V63.234C68.9824 64.2932 69.8395 65.1503 70.8987 65.1503ZM72.8147 57.4855H80.4795V61.3178H72.8147V57.4855Z" fill="#EF9C1C"/>
</g>
<defs>
<clipPath id="clip0">
<rect width="91.9767" height="91.9767" fill="white"/>
</clipPath>
</defs>
</svg>
