<svg width="92" height="92" viewBox="0 0 92 92" fill="none" xmlns="http://www.w3.org/2000/svg">
<g clip-path="url(#clip0)">
<path d="M45.9883 69.3419C44.9967 69.3419 44.1919 70.1467 44.1919 71.1383C44.1919 72.1299 44.9967 72.9347 45.9883 72.9347C46.9799 72.9347 47.7847 72.1299 47.7847 71.1383C47.7847 70.1467 46.9799 69.3419 45.9883 69.3419Z" fill="#EF9C1C"/>
<path d="M84.2678 11.0246C79.8471 9.24422 74.0997 8.26355 68.0844 8.26355C62.069 8.26355 56.3216 9.24422 51.9009 11.0246C49.2886 12.0768 47.294 13.3627 45.9884 14.8056C44.6827 13.3627 42.6882 12.077 40.0758 11.0248C35.6552 9.24422 29.9077 8.26355 23.8924 8.26355C17.8771 8.26355 12.1296 9.24422 7.70898 11.0246C2.73775 13.0269 0 15.8743 0 19.0421V62.1562C0 65.324 2.73775 68.1713 7.70898 70.1736C11.8204 71.8295 17.08 72.7924 22.6349 72.9193V72.9347C22.6349 79.0795 32.6747 83.7132 45.9884 83.7132C59.302 83.7132 69.3418 79.0795 69.3418 72.9347V72.9193C74.8967 72.7924 80.1563 71.8295 84.2678 70.1736C89.239 68.1713 91.9767 65.324 91.9767 62.1562V19.0421C91.9767 15.8743 89.239 13.0269 84.2678 11.0246ZM88.3839 51.3776C88.3839 52.9113 86.2923 54.7062 82.9255 56.0624C79.2814 57.53 74.3891 58.418 69.3418 58.5455V51.3776C69.3418 51.3724 69.3415 51.3672 69.3415 51.3622C74.8966 51.2356 80.1561 50.2727 84.2679 48.6166C85.8817 47.9666 87.2583 47.2272 88.3841 46.417L88.3839 51.3776ZM44.192 29.8206C44.192 31.3542 42.1004 33.1492 38.7335 34.5053C34.7873 36.0948 29.3779 37.0063 23.8924 37.0063C18.4068 37.0063 12.9975 36.0948 9.05127 34.5053C5.68441 33.1492 3.59284 31.3542 3.59284 29.8206V24.86C4.71866 25.6701 6.09526 26.4096 7.70898 27.0595C12.1296 28.8399 17.8771 29.8206 23.8924 29.8206C29.9077 29.8206 35.6552 28.8399 40.0758 27.0595C41.6895 26.4096 43.0661 25.6701 44.192 24.86V29.8206ZM7.70898 37.838C12.1296 39.6185 17.8771 40.5991 23.8924 40.5991C29.9077 40.5991 35.6552 39.6185 40.0758 37.838C41.6895 37.1881 43.0661 36.4487 44.192 35.6385V40.6309C39.5446 40.7883 35.0877 41.551 31.4828 42.8206C27.8672 44.0941 25.2654 45.7922 23.8505 47.7843C18.3794 47.7796 12.9874 46.8692 9.05127 45.2838C5.68441 43.9277 3.59284 42.1327 3.59284 40.5991V35.6385C4.71866 36.4487 6.09526 37.1881 7.70898 37.838ZM3.59284 46.417C4.71866 47.2272 6.09526 47.9666 7.70898 48.6166C11.8206 50.2725 17.0804 51.2354 22.6354 51.3622C22.6354 51.3674 22.6351 51.3726 22.6351 51.3776V58.5455C17.5877 58.418 12.6955 57.53 9.05145 56.0624C5.68441 54.7062 3.59284 52.9113 3.59284 51.3776V46.417ZM26.4178 50.4951C27.7491 47.3968 35.4333 44.192 45.9884 44.192C56.5434 44.192 64.2276 47.3968 65.5575 50.4915C65.6865 50.7934 65.749 51.0832 65.749 51.3776C65.749 52.9571 63.8019 54.7114 60.5403 56.0704C56.6823 57.6781 51.5143 58.5633 45.9884 58.5633C40.4624 58.5633 35.2945 57.6781 31.4365 56.0704C28.1749 54.7114 26.2277 52.9571 26.2277 51.3776C26.2277 51.0832 26.2904 50.7935 26.4178 50.4951ZM88.3839 40.5991C88.3839 42.1327 86.2923 43.9277 82.9255 45.2838C78.9895 46.8692 73.5977 47.7796 68.1267 47.7843C66.713 45.7933 64.1108 44.0944 60.4939 42.8206C56.8891 41.5509 52.4321 40.7883 47.7848 40.6309V35.6385C48.9106 36.4487 50.2872 37.1881 51.9009 37.838C56.3216 39.6185 62.069 40.5991 68.0844 40.5991C74.0997 40.5991 79.8471 39.6185 84.2678 37.838C85.8815 37.1881 87.2581 36.4487 88.3839 35.6385V40.5991ZM88.3839 29.8206C88.3839 31.3542 86.2923 33.1492 82.9255 34.5053C78.9793 36.0948 73.5699 37.0063 68.0844 37.0063C62.5988 37.0063 57.1894 36.0948 53.2432 34.5053C49.8764 33.1492 47.7848 31.3542 47.7848 29.8206V24.86C48.9106 25.6701 50.2872 26.4096 51.9009 27.0595C56.3216 28.8399 62.069 29.8206 68.0844 29.8206C74.0997 29.8206 79.8471 28.8399 84.2678 27.0595C85.8815 26.4096 87.2581 25.6701 88.3839 24.86V29.8206ZM53.2432 14.3574C57.1894 12.7679 62.5988 11.8564 68.0844 11.8564C73.5699 11.8564 78.9793 12.7679 82.9255 14.3574C86.2923 15.7135 88.3839 17.5085 88.3839 19.0421C88.3839 20.5757 86.2923 22.3707 82.9255 23.7268C78.9793 25.3163 73.5699 26.2278 68.0844 26.2278C62.5988 26.2278 57.1894 25.3163 53.2432 23.7268C49.8764 22.3707 47.7848 20.5757 47.7848 19.0421C47.7848 17.5085 49.8764 15.7135 53.2432 14.3574ZM9.05127 14.3574C12.9975 12.7679 18.4068 11.8564 23.8924 11.8564C29.3779 11.8564 34.7873 12.7679 38.7335 14.3574C42.1004 15.7135 44.192 17.5085 44.192 19.0421C44.192 20.5757 42.1004 22.3707 38.7335 23.7268C34.7873 25.3163 29.3779 26.2278 23.8924 26.2278C18.4068 26.2278 12.9975 25.3163 9.05127 23.7268C5.68441 22.3707 3.59284 20.5757 3.59284 19.0421C3.59284 17.5085 5.68441 15.7135 9.05127 14.3574ZM9.05127 66.8409C5.68441 65.4848 3.59284 63.6898 3.59284 62.1562V57.1955C4.71866 58.0057 6.09526 58.7451 7.70898 59.3951C11.8204 61.051 17.08 62.0139 22.6349 62.1407V69.3243C17.5875 69.1965 12.6953 68.3087 9.05127 66.8409ZM60.5403 77.6275C56.6823 79.2351 51.5143 80.1204 45.9884 80.1204C40.4624 80.1204 35.2945 79.2351 31.4365 77.6275C28.1749 76.2685 26.2277 74.5141 26.2277 72.9347V68.0788C26.6346 68.3732 27.0843 68.6659 27.583 68.9544C30.3726 70.5686 34.1683 71.7627 38.5598 72.4073C38.6484 72.4202 38.736 72.4265 38.823 72.4265C39.6996 72.4265 40.4669 71.7839 40.598 70.8907C40.7421 69.9092 40.0631 68.9966 39.0817 68.8525C30.7328 67.6268 26.2277 64.4877 26.2277 62.1562V57.2843C30.2938 60.2595 37.471 62.1562 45.9884 62.1562C54.5057 62.1562 61.683 60.2595 65.749 57.2843V62.1562C65.749 64.4877 61.2439 67.6268 52.8951 68.8525C51.9135 68.9966 51.2345 69.9092 51.3787 70.8907C51.5099 71.7841 52.2771 72.4265 53.1538 72.4265C53.2405 72.4265 53.3285 72.4202 53.4169 72.4073C57.8083 71.7627 61.6039 70.5688 64.3938 68.9544C64.8923 68.6659 65.3421 68.3732 65.749 68.0788V72.9347C65.749 74.5141 63.8019 76.2685 60.5403 77.6275ZM82.9255 66.8409C79.2814 68.3086 74.3891 69.1965 69.3418 69.3241V62.1405C74.8967 62.0137 80.1563 61.0508 84.2678 59.3949C85.8815 58.7449 87.2581 58.0055 88.3839 57.1954V62.1562C88.3839 63.6898 86.2923 65.4848 82.9255 66.8409Z" fill="#EF9C1C"/>
</g>
<defs>
<clipPath id="clip0">
<rect width="91.9767" height="91.9767" fill="white"/>
</clipPath>
</defs>
</svg>
