<svg width="92" height="92" viewBox="0 0 92 92" fill="none" xmlns="http://www.w3.org/2000/svg">
<g clip-path="url(#clip0)">
<path d="M17.2454 70.8987C15.1308 70.8987 13.4131 72.6185 13.4131 74.7311C13.4131 76.8436 15.131 78.5634 17.2454 78.5634C19.36 78.5634 21.0777 76.8436 21.0777 74.7311C21.0777 72.6185 19.36 70.8987 17.2454 70.8987Z" fill="#EF9C1C"/>
<path d="M91.685 85.2071L83.5344 72.1435C86.2427 70.9584 88.1446 68.2561 88.1446 65.1103V32.4786C88.1446 31.4177 87.2875 30.5592 86.2284 30.5592C85.1692 30.5592 84.3121 31.4177 84.3121 32.4786V34.3981H80.4798V30.4803C80.4798 26.362 79.0053 22.3693 76.3293 19.2388L68.7741 10.4097C66.682 1.63978 36.7922 1.63978 34.7001 10.4097L27.1449 19.2388C24.4687 22.3693 22.9942 26.362 22.9942 30.4803V34.3981H18.8089C18.0153 32.1686 15.9082 30.5592 13.4134 30.5592H9.58087C9.07194 30.5592 8.58529 30.7616 8.22601 31.1214L0.561383 38.7995C0.202098 39.1594 0 39.6467 0 40.1567V51.6738C0 54.8493 2.57859 57.4324 5.74856 57.4324H15.3294V61.4654C8.84631 62.4069 3.83231 67.9571 3.83231 74.7079C3.83231 82.116 9.85033 88.1444 17.2457 88.1444C24.641 88.1444 30.659 82.116 30.659 74.7079C30.659 74.0506 30.5568 73.4208 30.4654 72.7884H79.4181L88.4365 87.2428C88.7996 87.8258 89.4246 88.1444 90.0609 88.1444C90.409 88.1444 90.7607 88.0507 91.0751 87.852C91.9732 87.2915 92.2464 86.1069 91.685 85.2071ZM51.737 7.66463C60.4497 7.66463 65.1504 10.3855 65.1504 11.4969C65.1504 12.6084 60.4497 15.3294 51.737 15.3294C43.0244 15.3294 38.3237 12.6086 38.3237 11.4971C38.3237 10.3857 43.0244 7.66463 51.737 7.66463ZM26.8265 30.5804C26.8265 27.3824 27.9718 24.2816 30.0563 21.8508L36.0436 14.866C38.9123 17.6948 45.3486 19.1617 51.7368 19.1617C58.1251 19.1617 64.5613 17.6946 67.43 14.866L73.4173 21.8508C75.5019 24.2816 76.6471 27.3824 76.6471 30.5804V47.9045C76.6471 51.8529 66.9464 59.4016 51.7367 59.4016C36.5269 59.4016 26.8262 51.8529 26.8262 47.9045V30.5804H26.8265ZM5.74856 53.6531C4.69316 53.6531 3.83231 52.7942 3.83231 51.7368V41.0332L10.3743 34.4912H13.4134C14.4688 34.4912 15.3296 35.35 15.3296 36.4074V53.6531H5.74856ZM17.2457 84.3121C11.9611 84.3121 7.6648 80.0138 7.6648 74.7313C7.6648 69.4487 11.9611 65.1502 17.2457 65.1502C22.5302 65.1502 26.8265 69.4485 26.8265 74.7311C26.8265 80.0136 22.5302 84.3121 17.2457 84.3121ZM80.4798 68.9825H29.3135C27.4181 65.0232 23.6584 62.1633 19.1619 61.5114V55.5692V38.3235H22.9942V47.9044C22.9942 54.9927 35.5505 63.2338 51.737 63.2338C67.9235 63.2338 80.4798 54.9927 80.4798 47.9044V38.3235H84.3121V65.15C84.3121 67.263 82.5944 68.9825 80.4798 68.9825Z" fill="#EF9C1C"/>
</g>
<defs>
<clipPath id="clip0">
<rect width="91.9767" height="91.9767" fill="white"/>
</clipPath>
</defs>
</svg>
