<svg width="92" height="92" viewBox="0 0 92 92" fill="none" xmlns="http://www.w3.org/2000/svg">
<g clip-path="url(#clip0)">
<path d="M86.6818 51.0797H75.6012V42.7591C75.9897 42.6977 76.3372 42.5137 76.6234 42.248L88.4604 31.1674C89.0533 30.6154 89.2577 29.7568 88.9919 28.9799L82.8384 11.9911C82.5521 11.2143 81.8571 10.7032 81.0393 10.6418L65.2976 9.7423H65.2771L64.8682 9.72185C64.4389 9.70141 64.03 9.80363 63.6621 10.0285L56.0774 14.8533L38.8637 25.8111C38.0459 26.3222 37.7188 27.324 38.0459 28.2235L44.22 45.2123C44.5471 46.1119 45.4466 46.6638 46.4075 46.5412L49.2696 46.1732V51.0797H35.3678V34.4793C35.3474 31.5763 32.9963 29.2253 30.0933 29.2048H20.3007C18.3381 29.2048 16.539 30.3088 15.66 32.0669L9.46549 44.0675L3.20968 46.7661C1.26752 47.5838 0.0204438 49.4851 0 51.5704V67.1077C0.0204438 70.0107 2.37148 72.3413 5.27451 72.3617H7.91176C8.27975 78.1882 13.3089 82.6041 19.115 82.2361C24.4099 81.8885 28.6418 77.6771 28.9893 72.3617H61.9652C62.3332 78.1882 67.3624 82.6041 73.1684 82.2361C78.4634 81.8885 82.6953 77.6771 83.0428 72.3617H86.7022C89.6053 72.3617 91.9563 70.0107 91.9767 67.1077V56.3746C91.9359 53.4512 89.5848 51.1001 86.6818 51.0797ZM19.2376 33.8864C19.4421 33.5185 19.8305 33.2936 20.2394 33.2936H30.032C30.6657 33.314 31.1973 33.8251 31.2177 34.4793V43.5155H14.2493L19.2376 33.8864ZM18.4199 78.1269C14.8422 78.1269 11.9596 75.2239 11.9392 71.6462C11.9392 71.2986 11.9596 70.9306 12.021 70.5831C12.6138 67.0463 15.9462 64.6748 19.483 65.2677C22.202 65.7175 24.3486 67.8641 24.7984 70.5831C24.8597 70.9306 24.8801 71.2986 24.8801 71.6462C24.9006 75.2239 21.9975 78.1269 18.4199 78.1269ZM31.2382 68.2525H28.4169C26.5156 62.7327 20.5052 59.7888 14.9853 61.69C11.8983 62.7531 9.46549 65.1655 8.42285 68.2525H5.23362C4.57942 68.2525 4.06832 67.7414 4.04788 67.0872V51.5499C4.04788 51.0797 4.33409 50.6504 4.76341 50.4459L11.3054 47.5838H31.2382V68.2525ZM79.4447 14.6488L84.6987 29.1026L76.1123 37.137L67.7099 13.9742L79.4447 14.6488ZM63.6825 14.8533L72.4529 39.0587L67.9757 39.6516L59.8595 17.2861L63.6825 14.8533ZM71.5125 43.2906V51.0797H53.3175V45.6621L66.5651 43.9448L71.5125 43.2906ZM47.4501 42.3093L42.4005 28.4075L56.3227 19.5553L63.8052 40.2036L50.946 41.8595L47.4501 42.3093ZM72.4733 78.1269C68.8957 78.1269 66.0131 75.2239 65.9926 71.6462C65.9926 71.2986 66.0131 70.9306 66.0744 70.5831C66.5855 67.4552 69.2841 65.1655 72.4529 65.1655C75.6421 65.1859 78.3407 67.4961 78.8518 70.6444C78.8927 70.9715 78.9336 71.2986 78.9336 71.6462C78.9336 75.2239 76.051 78.1269 72.4733 78.1269ZM87.8675 67.0872C87.8471 67.7414 87.3156 68.2525 86.6818 68.2525H82.4704C80.5691 62.7327 74.5586 59.7888 69.0388 61.69C65.9518 62.7531 63.5189 65.1655 62.4763 68.2525H35.3269V55.1685H86.6818C87.336 55.1889 87.8471 55.7204 87.8675 56.3746V67.0872Z" fill="#EF9C1C"/>
</g>
<defs>
<clipPath id="clip0">
<rect width="91.9767" height="91.9767" fill="white"/>
</clipPath>
</defs>
</svg>
