<svg width="45" height="45" viewBox="0 0 45 45" fill="none" xmlns="http://www.w3.org/2000/svg">
<g clip-path="url(#clip0)">
<path d="M42.4094 24.9909H36.9882V20.92C37.1783 20.89 37.3483 20.8 37.4883 20.67L43.2796 15.2488C43.5697 14.9787 43.6697 14.5586 43.5397 14.1785L40.529 5.86668C40.389 5.4866 40.0489 5.23654 39.6488 5.20654L31.9471 4.76644H31.9371L31.7371 4.75644C31.527 4.74644 31.327 4.79645 31.1469 4.90647L27.4361 7.267L19.0142 12.6282C18.6141 12.8782 18.4541 13.3684 18.6141 13.8084L21.6348 22.1203C21.7948 22.5604 22.2349 22.8305 22.705 22.7704L24.1054 22.5904V24.9909H17.3038V16.8691C17.2938 15.4488 16.1436 14.2986 14.7233 14.2886H9.93221C8.97199 14.2886 8.0918 14.8287 7.6617 15.6889L4.63103 21.5602L1.57035 22.8805C0.620138 23.2806 0.0100022 24.2108 0 25.231V32.8327C0.0100022 34.253 1.16026 35.3932 2.58057 35.4032H3.87086C4.0509 38.2539 6.51145 40.4144 9.35208 40.2343C11.9427 40.0643 14.0131 38.0038 14.1832 35.4032H30.3167C30.4968 38.2539 32.9573 40.4144 35.798 40.2343C38.3885 40.0643 40.459 38.0038 40.629 35.4032H42.4194C43.8397 35.4032 44.99 34.253 45 32.8327V27.5815C44.98 26.1512 43.8297 25.0009 42.4094 24.9909ZM9.41209 16.5791C9.51211 16.399 9.70216 16.289 9.9022 16.289H14.6933C15.0033 16.299 15.2634 16.5491 15.2734 16.8691V21.2901H6.97155L9.41209 16.5791ZM9.012 38.2239C7.26161 38.2239 5.8513 36.8036 5.8413 35.0532C5.8413 34.8831 5.8513 34.7031 5.88131 34.5331C6.17137 32.8027 7.80173 31.6424 9.53212 31.9325C10.8624 32.1525 11.9126 33.2028 12.1327 34.5331C12.1627 34.7031 12.1727 34.8831 12.1727 35.0532C12.1827 36.8036 10.7624 38.2239 9.012 38.2239ZM15.2834 33.3928H13.9031C12.9729 30.6922 10.0322 29.2519 7.33163 30.1821C5.82129 30.7022 4.63103 31.8825 4.12092 33.3928H2.56057C2.2405 33.3928 1.99044 33.1427 1.98044 32.8227V25.221C1.98044 24.9909 2.12047 24.7809 2.33052 24.6809L5.53123 23.2806H15.2834V33.3928ZM38.8686 7.16697L41.4392 14.2385L37.2383 18.1694L33.1274 6.8369L38.8686 7.16697ZM31.1569 7.267L35.4479 19.1096L33.2574 19.3997L29.2865 8.45726L31.1569 7.267ZM34.9878 21.1801V24.9909H26.0858V22.3403L32.5672 21.5002L34.9878 21.1801ZM23.2152 20.7L20.7446 13.8985L27.5561 9.56751L31.2169 19.6698L24.9255 20.4799L23.2152 20.7ZM35.4579 38.2239C33.7075 38.2239 32.2972 36.8036 32.2872 35.0532C32.2872 34.8831 32.2972 34.7031 32.3272 34.5331C32.5772 33.0027 33.8975 31.8825 35.4479 31.8825C37.0082 31.8925 38.3285 33.0227 38.5786 34.5631C38.5986 34.7231 38.6186 34.8831 38.6186 35.0532C38.6186 36.8036 37.2083 38.2239 35.4579 38.2239ZM42.9896 32.8227C42.9795 33.1427 42.7195 33.3928 42.4094 33.3928H40.349C39.4188 30.6922 36.4781 29.2519 33.7775 30.1821C32.2672 30.7022 31.0769 31.8825 30.5668 33.3928H17.2838V26.9914H42.4094C42.7295 27.0014 42.9795 27.2614 42.9896 27.5815V32.8227Z" fill="#EF9C1C"/>
</g>
<defs>
<clipPath id="clip0">
<rect width="45" height="45" fill="white"/>
</clipPath>
</defs>
</svg>
