<svg width="45" height="45" viewBox="0 0 45 45" fill="none" xmlns="http://www.w3.org/2000/svg">
<path d="M23 43C17.6578 43 12.6354 40.9196 8.85781 37.1422C5.08039 33.3646 3 28.3422 3 23C3 17.6578 5.08039 12.6354 8.85781 8.85781C12.6354 5.08039 17.6578 3 23 3C28.3422 3 33.3646 5.08039 37.1422 8.85781C40.9196 12.6354 43 17.6578 43 23C43 28.3422 40.9196 33.3646 37.1422 37.1422C33.3646 40.9196 28.3422 43 23 43ZM23 5.34375C18.2838 5.34375 13.85 7.18031 10.5152 10.5152C7.18031 13.85 5.34375 18.2838 5.34375 23C5.34375 27.7162 7.18031 32.15 10.5152 35.4848C13.85 38.8197 18.2838 40.6562 23 40.6562C27.7162 40.6562 32.15 38.8197 35.4848 35.4848C38.8197 32.15 40.6562 27.7162 40.6562 23C40.6562 18.2838 38.8197 13.85 35.4848 10.5152C32.15 7.18031 27.7162 5.34375 23 5.34375Z" fill="#EF9C1C"/>
<path d="M21.8281 7.69031H24.1719V10.8178H21.8281V7.69031Z" fill="#EF9C1C"/>
<path d="M30.7812 13.5593L32.9924 11.3482L34.6494 13.0052L32.4383 15.2164L30.7812 13.5593Z" fill="#EF9C1C"/>
<path d="M35.1816 21.8281H38.3091V24.1719H35.1816V21.8281Z" fill="#EF9C1C"/>
<path d="M30.7793 32.4428L32.4363 30.7858L34.6475 32.9969L32.9904 34.654L30.7793 32.4428Z" fill="#EF9C1C"/>
<path d="M21.8281 35.1822H24.1719V38.3097H21.8281V35.1822Z" fill="#EF9C1C"/>
<path d="M11.3418 32.9949L13.5529 30.7837L15.21 32.4408L12.9988 34.6519L11.3418 32.9949Z" fill="#EF9C1C"/>
<path d="M7.69141 21.8281H10.8189V24.1719H7.69141V21.8281Z" fill="#EF9C1C"/>
<path d="M11.3438 13.0031L13.0008 11.346L15.2119 13.5572L13.5549 15.2142L11.3438 13.0031Z" fill="#EF9C1C"/>
<path d="M31.2728 24.1719H21.8281V14.7272H24.1719V21.8281H31.2728V24.1719Z" fill="#EF9C1C"/>
</svg>
