<svg width="45" height="45" viewBox="0 0 45 45" fill="none" xmlns="http://www.w3.org/2000/svg">
<path d="M40.6875 4.0625H9.19792C6.82292 4.07292 4.89583 6 4.89583 8.38542V8.4375H4.3125C1.9375 8.4375 0.0104167 10.3542 0 12.7292V36.6146C0.0104167 38.9896 1.92708 40.9271 4.3125 40.9375H35.8021C38.1771 40.9271 40.1042 39 40.1042 36.6146V36.5625H40.6875C43.0625 36.5625 44.9896 34.6458 45 32.2708V8.38542C44.9896 6 43.0729 4.07292 40.6875 4.0625ZM35.8021 38.8542H4.3125C3.08333 38.8438 2.09375 37.8438 2.08333 36.6146V12.7292C2.09375 11.5104 3.08333 10.5208 4.3125 10.5208H35.8021C37.0208 10.5208 38.0208 11.5 38.0208 12.7292V18.6875C37.8333 18.7292 37.6458 18.75 37.4688 18.75H31.4583C28.1875 18.75 25.5312 21.4062 25.5312 24.6771C25.5312 27.9479 28.1875 30.6042 31.4583 30.6146H37.4583C37.6458 30.6042 37.8333 30.5833 38.0104 30.5625L38.0208 36.6146C38.0208 37.8438 37.0312 38.8438 35.8021 38.8542ZM42.9167 32.2708C42.9062 33.4896 41.9167 34.4792 40.6875 34.4792H40.1042V29.8125C40.5521 29.5104 40.9583 29.1354 41.3021 28.7188L42.9167 26.6354V32.2708ZM39.6562 27.4583C39.1354 28.1354 38.3229 28.5312 37.4688 28.5417H31.4583C29.3333 28.5312 27.6146 26.8125 27.6146 24.6875C27.6146 22.5625 29.3333 20.8438 31.4583 20.8333H37.4583C38.1771 20.8333 38.8854 20.6771 39.5312 20.3646C40.2188 20.0417 40.8229 19.5521 41.2917 18.9479L42.9062 16.8646L42.9167 23.2292L39.6562 27.4583ZM42.9167 13.4583L40.1042 17.0833V12.7292C40.1042 10.3542 38.1771 8.4375 35.8021 8.4375H6.97917V8.38542C6.97917 7.15625 7.96875 6.15625 9.19792 6.14583H40.6875C41.9167 6.15625 42.9062 7.15625 42.9167 8.38542V13.4583Z" fill="#EF9C1C"/>
<path d="M33.7917 23.6459H31.2917C30.7187 23.6459 30.25 24.1146 30.25 24.6875C30.25 25.2605 30.7187 25.7292 31.2917 25.7292H33.7917C34.3646 25.7292 34.8333 25.2605 34.8333 24.6875C34.8333 24.1146 34.3646 23.6459 33.7917 23.6459Z" fill="#EF9C1C"/>
</svg>
