<svg width="60" height="60" viewBox="0 0 60 60" fill="none" xmlns="http://www.w3.org/2000/svg">
<g clip-path="url(#clip0)">
<path d="M29.735 60C29.4075 60 29.0875 59.87 28.85 59.635C28.555 59.34 28.425 58.915 28.5075 58.5075L30.275 49.67C30.325 49.425 30.44 49.2025 30.6175 49.03L50.0625 29.585C51.5225 28.125 53.905 28.125 55.365 29.585L58.9 33.12C60.3625 34.5825 60.3625 36.96 58.9 38.4225L39.455 57.8675C39.2825 58.0425 39.06 58.16 38.815 58.21L29.9775 59.9775C29.8975 59.9925 29.815 60 29.735 60ZM32.655 50.5275L31.33 57.155L37.9575 55.83L57.135 36.6525C57.6225 36.165 57.6225 35.3725 57.135 34.885L53.6 31.35C53.1125 30.8625 52.32 30.8625 51.8325 31.35L32.655 50.5275ZM38.5725 56.9825H38.5975H38.5725Z" fill="#EF9C1C"/>
<path d="M23.75 52.5H6.25C2.8025 52.5 0 49.6975 0 46.25V13.75C0 10.3025 2.8025 7.5 6.25 7.5H11.25C11.94 7.5 12.5 8.06 12.5 8.75C12.5 9.44 11.94 10 11.25 10H6.25C4.1825 10 2.5 11.6825 2.5 13.75V46.25C2.5 48.3175 4.1825 50 6.25 50H23.75C24.44 50 25 50.56 25 51.25C25 51.94 24.44 52.5 23.75 52.5Z" fill="#EF9C1C"/>
<path d="M41.25 30C40.56 30 40 29.44 40 28.75V13.75C40 11.6825 38.3175 10 36.25 10H31.25C30.56 10 30 9.44 30 8.75C30 8.06 30.56 7.5 31.25 7.5H36.25C39.6975 7.5 42.5 10.3025 42.5 13.75V28.75C42.5 29.44 41.94 30 41.25 30Z" fill="#EF9C1C"/>
<path d="M28.75 15H13.75C11.6825 15 10 13.3175 10 11.25V6.25C10 5.56 10.56 5 11.25 5H15.125C15.705 2.15 18.2325 0 21.25 0C24.2675 0 26.795 2.15 27.375 5H31.25C31.94 5 32.5 5.56 32.5 6.25V11.25C32.5 13.3175 30.8175 15 28.75 15ZM12.5 7.5V11.25C12.5 11.9375 13.0625 12.5 13.75 12.5H28.75C29.4375 12.5 30 11.9375 30 11.25V7.5H26.25C25.56 7.5 25 6.94 25 6.25C25 4.1825 23.3175 2.5 21.25 2.5C19.1825 2.5 17.5 4.1825 17.5 6.25C17.5 6.94 16.94 7.5 16.25 7.5H12.5Z" fill="#EF9C1C"/>
<path d="M33.75 22.5H8.75C8.06 22.5 7.5 21.94 7.5 21.25C7.5 20.56 8.06 20 8.75 20H33.75C34.44 20 35 20.56 35 21.25C35 21.94 34.44 22.5 33.75 22.5Z" fill="#EF9C1C"/>
<path d="M33.75 30H8.75C8.06 30 7.5 29.44 7.5 28.75C7.5 28.06 8.06 27.5 8.75 27.5H33.75C34.44 27.5 35 28.06 35 28.75C35 29.44 34.44 30 33.75 30Z" fill="#EF9C1C"/>
<path d="M33.75 37.5H8.75C8.06 37.5 7.5 36.94 7.5 36.25C7.5 35.56 8.06 35 8.75 35H33.75C34.44 35 35 35.56 35 36.25C35 36.94 34.44 37.5 33.75 37.5Z" fill="#EF9C1C"/>
</g>
<defs>
<clipPath id="clip0">
<rect width="60" height="60" fill="white"/>
</clipPath>
</defs>
</svg>
