<svg width="60" height="60" viewBox="0 0 60 60" fill="none" xmlns="http://www.w3.org/2000/svg">
<path d="M30 45.2344C29.3531 45.2344 28.8281 45.7594 28.8281 46.4062C28.8281 47.0531 29.3531 47.5781 30 47.5781C30.6469 47.5781 31.1719 47.0531 31.1719 46.4062C31.1719 45.7594 30.6469 45.2344 30 45.2344Z" fill="#EF9C1C"/>
<path d="M54.9711 7.1918C52.0874 6.03035 48.3381 5.39062 44.4141 5.39062C40.49 5.39062 36.7407 6.03035 33.857 7.1918C32.1529 7.87816 30.8517 8.71699 30 9.65824C29.1483 8.71699 27.8471 7.87828 26.143 7.19191C23.2593 6.03035 19.51 5.39062 15.5859 5.39062C11.6619 5.39062 7.91262 6.03035 5.02887 7.1918C1.78594 8.49797 0 10.3554 0 12.4219V40.5469C0 42.6134 1.78594 44.4708 5.02887 45.777C7.71094 46.8572 11.142 47.4853 14.7656 47.568V47.5781C14.7656 51.5866 21.315 54.6094 30 54.6094C38.685 54.6094 45.2344 51.5866 45.2344 47.5781V47.568C48.858 47.4853 52.2891 46.8572 54.9711 45.777C58.2141 44.4708 60 42.6134 60 40.5469V12.4219C60 10.3554 58.2141 8.49797 54.9711 7.1918ZM57.6562 33.5156C57.6562 34.5161 56.2918 35.687 54.0955 36.5716C51.7184 37.5291 48.5269 38.1083 45.2344 38.1915V33.5156C45.2344 33.5122 45.2341 33.5088 45.2341 33.5055C48.8579 33.4229 52.2889 32.7948 54.9713 31.7145C56.0239 31.2905 56.922 30.8081 57.6564 30.2796L57.6562 33.5156ZM28.8281 19.4531C28.8281 20.4536 27.4637 21.6245 25.2674 22.5091C22.6931 23.546 19.1644 24.1406 15.5859 24.1406C12.0075 24.1406 8.47875 23.546 5.90449 22.5091C3.70816 21.6245 2.34375 20.4536 2.34375 19.4531V16.2171C3.07816 16.7456 3.97617 17.228 5.02887 17.652C7.91262 18.8134 11.6619 19.4531 15.5859 19.4531C19.51 19.4531 23.2593 18.8134 26.143 17.652C27.1957 17.228 28.0937 16.7456 28.8281 16.2171V19.4531ZM5.02887 24.6832C7.91262 25.8446 11.6619 26.4844 15.5859 26.4844C19.51 26.4844 23.2593 25.8446 26.143 24.6832C27.1957 24.2592 28.0937 23.7769 28.8281 23.2484V26.5051C25.7965 26.6078 22.8891 27.1054 20.5375 27.9335C18.1788 28.7643 16.4816 29.872 15.5586 31.1715C11.9896 31.1685 8.47219 30.5746 5.90449 29.5404C3.70816 28.6557 2.34375 27.4848 2.34375 26.4844V23.2484C3.07816 23.7769 3.97617 24.2592 5.02887 24.6832ZM2.34375 30.2796C3.07816 30.8081 3.97617 31.2905 5.02887 31.7145C7.71105 32.7947 11.1422 33.4228 14.766 33.5055C14.766 33.5089 14.7657 33.5123 14.7657 33.5156V38.1915C11.4731 38.1083 8.28176 37.5291 5.90461 36.5716C3.70816 35.687 2.34375 34.5161 2.34375 33.5156V30.2796ZM17.2334 32.9399C18.1018 30.9188 23.1145 28.8281 30 28.8281C36.8855 28.8281 41.8982 30.9187 42.7657 32.9375C42.8498 33.1345 42.8906 33.3236 42.8906 33.5156C42.8906 34.5459 41.6204 35.6904 39.4928 36.5769C36.9761 37.6256 33.6048 38.2031 30 38.2031C26.3952 38.2031 23.0239 37.6256 20.5072 36.5769C18.3796 35.6904 17.1094 34.5459 17.1094 33.5156C17.1094 33.3236 17.1503 33.1345 17.2334 32.9399ZM57.6562 26.4844C57.6562 27.4848 56.2918 28.6557 54.0955 29.5404C51.5279 30.5746 48.0107 31.1685 44.4417 31.1715C43.5195 29.8727 41.822 28.7645 39.4625 27.9335C37.1109 27.1052 34.2035 26.6078 31.1719 26.5051V23.2484C31.9063 23.7769 32.8043 24.2592 33.857 24.6832C36.7407 25.8446 40.49 26.4844 44.4141 26.4844C48.3381 26.4844 52.0874 25.8446 54.9711 24.6832C56.0238 24.2592 56.9218 23.7769 57.6562 23.2484V26.4844ZM57.6562 19.4531C57.6562 20.4536 56.2918 21.6245 54.0955 22.5091C51.5212 23.546 47.9925 24.1406 44.4141 24.1406C40.8356 24.1406 37.3069 23.546 34.7326 22.5091C32.5363 21.6245 31.1719 20.4536 31.1719 19.4531V16.2171C31.9063 16.7456 32.8043 17.228 33.857 17.652C36.7407 18.8134 40.49 19.4531 44.4141 19.4531C48.3381 19.4531 52.0874 18.8134 54.9711 17.652C56.0238 17.228 56.9218 16.7456 57.6562 16.2171V19.4531ZM34.7326 9.36586C37.3069 8.32898 40.8356 7.73438 44.4141 7.73438C47.9925 7.73438 51.5212 8.32898 54.0955 9.36586C56.2918 10.2505 57.6562 11.4214 57.6562 12.4219C57.6562 13.4223 56.2918 14.5932 54.0955 15.4779C51.5212 16.5148 47.9925 17.1094 44.4141 17.1094C40.8356 17.1094 37.3069 16.5148 34.7326 15.4779C32.5363 14.5932 31.1719 13.4223 31.1719 12.4219C31.1719 11.4214 32.5363 10.2505 34.7326 9.36586ZM5.90449 9.36586C8.47875 8.32898 12.0075 7.73438 15.5859 7.73438C19.1644 7.73438 22.6931 8.32898 25.2674 9.36586C27.4637 10.2505 28.8281 11.4214 28.8281 12.4219C28.8281 13.4223 27.4637 14.5932 25.2674 15.4779C22.6931 16.5148 19.1644 17.1094 15.5859 17.1094C12.0075 17.1094 8.47875 16.5148 5.90449 15.4779C3.70816 14.5932 2.34375 13.4223 2.34375 12.4219C2.34375 11.4214 3.70816 10.2505 5.90449 9.36586ZM5.90449 43.6029C3.70816 42.7182 2.34375 41.5473 2.34375 40.5469V37.3109C3.07816 37.8394 3.97617 38.3217 5.02887 38.7457C7.71094 39.8259 11.142 40.4541 14.7656 40.5368V45.2229C11.473 45.1396 8.28164 44.5604 5.90449 43.6029ZM39.4928 50.6394C36.9761 51.6881 33.6048 52.2656 30 52.2656C26.3952 52.2656 23.0239 51.6881 20.5072 50.6394C18.3796 49.7529 17.1094 48.6084 17.1094 47.5781V44.4104C17.3748 44.6025 17.6681 44.7934 17.9934 44.9816C19.8132 46.0346 22.2893 46.8136 25.1541 47.2341C25.2118 47.2425 25.269 47.2466 25.3257 47.2466C25.8976 47.2466 26.3981 46.8274 26.4837 46.2448C26.5777 45.6045 26.1347 45.0091 25.4945 44.9152C20.0482 44.1156 17.1094 42.0679 17.1094 40.5469V37.3688C19.7618 39.3096 24.4438 40.5469 30 40.5469C35.5562 40.5469 40.2382 39.3096 42.8906 37.3688V40.5469C42.8906 42.0679 39.9518 44.1156 34.5055 44.9152C33.8652 45.0091 33.4222 45.6045 33.5163 46.2448C33.6019 46.8275 34.1024 47.2466 34.6743 47.2466C34.7309 47.2466 34.7883 47.2425 34.8459 47.2341C37.7106 46.8136 40.1866 46.0348 42.0066 44.9816C42.3318 44.7934 42.6252 44.6025 42.8906 44.4104V47.5781C42.8906 48.6084 41.6204 49.7529 39.4928 50.6394ZM54.0955 43.6029C51.7184 44.5603 48.5269 45.1396 45.2344 45.2228V40.5367C48.858 40.4539 52.2891 39.8258 54.9711 38.7456C56.0238 38.3216 56.9218 37.8393 57.6562 37.3107V40.5469C57.6562 41.5473 56.2918 42.7182 54.0955 43.6029Z" fill="#EF9C1C"/>
</svg>
