<svg width="60" height="60" viewBox="0 0 60 60" fill="none" xmlns="http://www.w3.org/2000/svg">
<path d="M56.7638 37.4609V16.0968C56.7638 15.6382 56.4963 15.2218 56.0794 15.0311L43.3995 9.23121C43.0937 9.09152 42.7303 9.09012 42.4247 9.23109L30.2289 14.8082L22.4149 11.235V3.50039C22.4149 1.5702 20.8446 0 18.9143 0H3.50062C1.57031 0 0 1.57031 0 3.50039V18.9135C0 20.8437 1.57031 22.4139 3.50062 22.4139H3.69398V50.9421C3.69398 51.341 3.89684 51.7125 4.23258 51.9281C4.56832 52.1437 4.99043 52.1737 5.35324 52.0078L17.5491 46.4309L29.7415 52.0078C30.0479 52.1477 30.41 52.1484 30.7165 52.0078L40.7746 47.4064C41.441 50.6093 43.2953 53.0453 45.2359 55.5922C45.4827 55.9161 45.7318 56.2431 45.9812 56.5753C45.9971 56.5965 46.0138 56.6171 46.0311 56.6373L47.9121 58.8172C48.7511 59.7875 49.6461 59.996 50.2493 60H50.2569C50.2569 60 50.262 60 50.2645 60C50.8677 59.996 51.7628 59.7877 52.6017 58.8171L54.4853 56.638C54.503 56.6175 54.52 56.5964 54.5364 56.5747C54.787 56.2403 55.0376 55.9112 55.2857 55.5853C57.7341 52.3688 60.0466 49.3304 59.9994 44.6974C59.9973 41.8273 58.7469 39.2442 56.7638 37.4609ZM54.42 35.8983C53.1568 35.2986 51.7457 34.9618 50.2569 34.9618C47.9161 34.9618 45.7657 35.7921 44.0839 37.1732V12.1215L54.42 16.8493V35.8983ZM2.34375 18.9136V3.50039C2.34375 2.86266 2.86266 2.34375 3.50062 2.34375H18.9144C19.5523 2.34375 20.0713 2.86266 20.0713 3.50039V18.9135C20.0713 19.5512 19.5524 20.0701 18.9144 20.0701H15.144C14.7407 20.0701 14.3657 20.2777 14.1513 20.6193L11.2075 25.3118L8.26371 20.6193C8.04937 20.2777 7.67438 20.0701 7.27102 20.0701H3.50062C2.86266 20.0702 2.34375 19.5513 2.34375 18.9136ZM6.03773 22.414H6.62273L10.2146 28.1398C10.429 28.4814 10.804 28.6889 11.2073 28.6889C11.6107 28.6889 11.9857 28.4814 12.2 28.1398L15.7921 22.414H16.3771V44.3897L6.03762 49.1179V22.414H6.03773ZM31.4007 49.1174V38.7845C31.4007 38.1374 30.8761 37.6126 30.2289 37.6126C29.5816 37.6126 29.057 38.1374 29.057 38.7845V49.1175L18.7209 44.3897V22.414H18.9143C20.8445 22.414 22.4149 20.8438 22.4149 18.9136V13.8122L29.057 16.8496V28.2579C29.057 28.905 29.5816 29.4298 30.2289 29.4298C30.8761 29.4298 31.4007 28.905 31.4007 28.2579V16.8496L41.7401 12.1214V39.9806C40.9614 41.379 40.5155 42.987 40.5143 44.6975C40.5135 44.7818 40.515 44.8644 40.5157 44.9476L31.4007 49.1174ZM53.4206 54.1658C53.1772 54.4856 52.9315 54.8084 52.6856 55.1361L50.8287 57.2844C50.6285 57.5161 50.4206 57.651 50.2569 57.6561C50.0932 57.651 49.8854 57.5161 49.6859 57.2852L47.8315 55.1362C47.5868 54.8106 47.3422 54.4896 47.1 54.1719C44.802 51.1559 42.8173 48.551 42.858 44.7164C42.858 44.7123 42.858 44.7081 42.858 44.704C42.858 40.6245 46.1771 37.3056 50.2568 37.3056C54.3364 37.3056 57.6555 40.6245 57.6555 44.704V44.7164C57.6964 48.5483 55.715 51.1515 53.4206 54.1658Z" fill="#EF9C1C"/>
<path d="M50.2568 40.2302C47.7899 40.2302 45.783 42.2372 45.783 44.7041C45.783 47.1709 47.7899 49.1778 50.2568 49.1778C52.7237 49.1778 54.7307 47.1709 54.7307 44.7041C54.7307 42.2372 52.7237 40.2302 50.2568 40.2302ZM50.2568 46.8341C49.0823 46.8341 48.1267 45.8787 48.1267 44.7041C48.1267 43.5295 49.0823 42.574 50.2568 42.574C51.4313 42.574 52.3869 43.5295 52.3869 44.7041C52.3869 45.8787 51.4314 46.8341 50.2568 46.8341Z" fill="#EF9C1C"/>
<path d="M6.13818 17.4479H16.2768C16.924 17.4479 17.4487 16.9232 17.4487 16.2761V6.13794C17.4487 5.49083 16.924 4.96606 16.2768 4.96606H6.13818C5.49096 4.96606 4.96631 5.49083 4.96631 6.13794V16.2761C4.96631 16.9232 5.49096 17.4479 6.13818 17.4479ZM7.31006 7.30981H10.0356V8.97153C10.0356 9.61864 10.5603 10.1434 11.2075 10.1434C11.8547 10.1434 12.3794 9.61864 12.3794 8.97153V7.30981H15.1049V15.1042H7.31006V7.30981Z" fill="#EF9C1C"/>
<path d="M30.2288 32.3474C29.5815 32.3474 29.0569 32.8722 29.0569 33.5193V33.526C29.0569 34.1731 29.5815 34.6946 30.2288 34.6946C30.876 34.6946 31.4006 34.1665 31.4006 33.5194C31.4006 32.8723 30.876 32.3474 30.2288 32.3474Z" fill="#EF9C1C"/>
</svg>
