<svg width="60" height="60" viewBox="0 0 60 60" fill="none" xmlns="http://www.w3.org/2000/svg">
<g clip-path="url(#clip0)">
<path d="M56.5459 33.3213H49.3176V27.8935C49.571 27.8534 49.7977 27.7334 49.9844 27.56L57.7062 20.3318C58.0929 19.9717 58.2263 19.4116 58.0529 18.9048L54.0387 7.82233C53.852 7.31555 53.3985 6.98214 52.8651 6.94213L42.5961 6.35534H42.5828L42.3161 6.342C42.036 6.32866 41.7693 6.39534 41.5292 6.54204L36.5815 9.68941L25.3523 16.8377C24.8189 17.1711 24.6055 17.8246 24.8189 18.4113L28.8464 29.4938C29.0598 30.0806 29.6466 30.4407 30.2734 30.3607L32.1405 30.1206V33.3213H23.0718V22.4923C23.0585 20.5985 21.5248 19.0648 19.631 19.0515H13.2429C11.9627 19.0515 10.7891 19.7717 10.2156 20.9186L6.17471 28.747L2.0938 30.5074C0.82685 31.0408 0.0133363 32.2811 0 33.6414V43.777C0.0133363 45.6707 1.54701 47.1911 3.44076 47.2044H5.16115C5.4012 51.0053 8.68193 53.8859 12.4694 53.6458C15.9235 53.4191 18.6842 50.6719 18.9109 47.2044H40.4223C40.6624 51.0053 43.9431 53.8859 47.7306 53.6458C51.1847 53.4191 53.9453 50.6719 54.172 47.2044H56.5592C58.453 47.2044 59.9867 45.6707 60 43.777V36.7754C59.9733 34.8683 58.4397 33.3347 56.5459 33.3213ZM12.5495 22.1055C12.6828 21.8654 12.9362 21.7188 13.2029 21.7188H19.591C20.0044 21.7321 20.3512 22.0655 20.3645 22.4923V28.3869H9.2954L12.5495 22.1055ZM12.016 50.9653C9.68215 50.9653 7.80173 49.0715 7.7884 46.7376C7.7884 46.5109 7.80173 46.2709 7.84174 46.0442C8.2285 43.737 10.4023 42.19 12.7095 42.5767C14.4832 42.8701 15.8835 44.2704 16.1769 46.0442C16.2169 46.2709 16.2303 46.5109 16.2303 46.7376C16.2436 49.0715 14.3499 50.9653 12.016 50.9653ZM20.3779 44.5238H18.5375C17.2972 40.923 13.3763 39.0026 9.77551 40.2429C7.76173 40.9364 6.17471 42.51 5.49455 44.5238H3.41409C2.98733 44.5238 2.65392 44.1904 2.64059 43.7636V33.6281C2.64059 33.3213 2.8273 33.0413 3.10736 32.9079L7.37497 31.0408H20.3779V44.5238ZM51.8249 9.55605L55.2523 18.9848L49.651 24.226L44.1698 9.11595L51.8249 9.55605ZM41.5426 9.68941L47.2638 25.4796L44.3432 25.8663L39.0487 11.2764L41.5426 9.68941ZM46.6504 28.2402V33.3213H34.7811V29.7872L43.423 28.667L46.6504 28.2402ZM30.9535 27.6001L27.6595 18.5314L36.7415 12.7568L41.6226 26.2264L33.2341 27.3067L30.9535 27.6001ZM47.2772 50.9653C44.9433 50.9653 43.0629 49.0715 43.0496 46.7376C43.0496 46.5109 43.0629 46.2709 43.1029 46.0442C43.4363 44.0037 45.1967 42.51 47.2638 42.51C49.3443 42.5234 51.1047 44.0304 51.4381 46.0842C51.4648 46.2975 51.4914 46.5109 51.4914 46.7376C51.4914 49.0715 49.611 50.9653 47.2772 50.9653ZM57.3194 43.7636C57.3061 44.1904 56.9593 44.5238 56.5459 44.5238H53.7986C52.5583 40.923 48.6375 39.0026 45.0367 40.2429C43.0229 40.9364 41.4359 42.51 40.7557 44.5238H23.0451V35.9886H56.5459C56.9727 36.0019 57.3061 36.3487 57.3194 36.7754V43.7636Z" fill="#EF9C1C"/>
</g>
<defs>
<clipPath id="clip0">
<rect width="60" height="60" fill="white"/>
</clipPath>
</defs>
</svg>
