<svg width="22" height="30" viewBox="0 0 22 30" fill="none" xmlns="http://www.w3.org/2000/svg">
<path d="M18.8672 30H2.69531C1.20914 30 0 28.7909 0 27.3047V2.69531C0 1.20914 1.20914 0 2.69531 0H18.8672C20.3534 0 21.5625 1.20914 21.5625 2.69531V27.3047C21.5625 28.7909 20.3534 30 18.8672 30ZM2.69531 1.875C2.24297 1.875 1.875 2.24297 1.875 2.69531V27.3047C1.875 27.757 2.24297 28.125 2.69531 28.125H18.8672C19.3195 28.125 19.6875 27.757 19.6875 27.3047V2.69531C19.6875 2.24297 19.3195 1.875 18.8672 1.875H2.69531Z" fill="#EF9C1C"/>
<path d="M15.2344 11.7188H6.32812C5.16498 11.7188 4.21875 10.7725 4.21875 9.60938V7.26562C4.21875 6.10248 5.16498 5.15625 6.32812 5.15625H15.2344C16.3975 5.15625 17.3438 6.10248 17.3438 7.26562V9.60938C17.3438 10.7725 16.3975 11.7188 15.2344 11.7188ZM6.32812 7.03125C6.19887 7.03125 6.09375 7.13637 6.09375 7.26562V9.60938C6.09375 9.73863 6.19887 9.84375 6.32812 9.84375H15.2344C15.3636 9.84375 15.4688 9.73863 15.4688 9.60938V7.26562C15.4688 7.13637 15.3636 7.03125 15.2344 7.03125H6.32812Z" fill="#EF9C1C"/>
<path d="M6.09502 16.875C5.57729 16.875 5.15723 16.4552 5.15723 15.9375C5.15723 15.4198 5.5767 15 6.09443 15H6.09502C6.61281 15 7.03252 15.4198 7.03252 15.9375C7.03252 16.4552 6.61275 16.875 6.09502 16.875Z" fill="#EF9C1C"/>
<path d="M10.7825 16.875C10.2648 16.875 9.84473 16.4552 9.84473 15.9375C9.84473 15.4198 10.2642 15 10.7819 15H10.7825C11.3003 15 11.72 15.4198 11.72 15.9375C11.72 16.4552 11.3002 16.875 10.7825 16.875Z" fill="#EF9C1C"/>
<path d="M15.47 16.875C14.9523 16.875 14.5322 16.4552 14.5322 15.9375C14.5322 15.4198 14.9517 15 15.4694 15H15.47C15.9878 15 16.4075 15.4198 16.4075 15.9375C16.4075 16.4552 15.9878 16.875 15.47 16.875Z" fill="#EF9C1C"/>
<path d="M6.09502 21.0938C5.57729 21.0938 5.15723 20.674 5.15723 20.1562C5.15723 19.6385 5.5767 19.2188 6.09443 19.2188H6.09502C6.61281 19.2188 7.03252 19.6385 7.03252 20.1562C7.03252 20.674 6.61275 21.0938 6.09502 21.0938Z" fill="#EF9C1C"/>
<path d="M10.7825 21.0938C10.2648 21.0938 9.84473 20.674 9.84473 20.1562C9.84473 19.6385 10.2642 19.2188 10.7819 19.2188H10.7825C11.3003 19.2188 11.72 19.6385 11.72 20.1562C11.72 20.674 11.3002 21.0938 10.7825 21.0938Z" fill="#EF9C1C"/>
<path d="M15.47 21.0938C14.9523 21.0938 14.5322 20.674 14.5322 20.1562C14.5322 19.6385 14.9517 19.2188 15.4694 19.2188H15.47C15.9878 19.2188 16.4075 19.6385 16.4075 20.1562C16.4075 20.674 15.9878 21.0938 15.47 21.0938Z" fill="#EF9C1C"/>
<path d="M6.09502 25.3125C5.57729 25.3125 5.15723 24.8927 5.15723 24.375C5.15723 23.8573 5.5767 23.4375 6.09443 23.4375H6.09502C6.61281 23.4375 7.03252 23.8573 7.03252 24.375C7.03252 24.8927 6.61275 25.3125 6.09502 25.3125Z" fill="#EF9C1C"/>
<path d="M10.7825 25.3125C10.2648 25.3125 9.84473 24.8927 9.84473 24.375C9.84473 23.8573 10.2642 23.4375 10.7819 23.4375H10.7825C11.3003 23.4375 11.72 23.8573 11.72 24.375C11.72 24.8927 11.3002 25.3125 10.7825 25.3125Z" fill="#EF9C1C"/>
<path d="M15.47 25.3125C14.9523 25.3125 14.5322 24.8927 14.5322 24.375C14.5322 23.8573 14.9517 23.4375 15.4694 23.4375H15.47C15.9878 23.4375 16.4075 23.8573 16.4075 24.375C16.4075 24.8927 15.9878 25.3125 15.47 25.3125Z" fill="#EF9C1C"/>
</svg>
