<svg width="30" height="30" viewBox="0 0 30 30" fill="none" xmlns="http://www.w3.org/2000/svg">
<g clip-path="url(#clip0)">
<path d="M26.9156 5.89687L21.2906 0.271867C21.1137 0.0963788 20.8742 -0.00141418 20.625 -7.92925e-06H5.625C4.07168 -7.92925e-06 2.8125 1.25917 2.8125 2.81249V27.1875C2.8125 28.7408 4.07168 30 5.625 30H24.375C25.9283 30 27.1875 28.7408 27.1875 27.1875V6.56249C27.189 6.31329 27.0911 6.07382 26.9156 5.89687ZM25.3125 27.1875C25.3125 27.7053 24.8928 28.125 24.375 28.125H5.625C5.10721 28.125 4.6875 27.7053 4.6875 27.1875V2.81249C4.6875 2.2947 5.10721 1.87499 5.625 1.87499H19.6875V5.62499C19.6875 6.66052 20.527 7.49999 21.5625 7.49999H25.3125V27.1875Z" fill="#272727"/>
<rect x="9" y="11" width="12" height="2" rx="1" fill="#272727"/>
<rect x="9" y="16" width="12" height="2" rx="1" fill="#272727"/>
<rect x="9" y="21" width="12" height="2" rx="1" fill="#272727"/>
</g>
<defs>
<clipPath id="clip0">
<rect width="30" height="30" fill="white"/>
</clipPath>
</defs>
</svg>
