<svg width="30" height="30" viewBox="0 0 30 30" fill="none" xmlns="http://www.w3.org/2000/svg">
<path d="M27.5465 17.6033L25.3333 12.0703L27.5465 6.53736C27.6548 6.26654 27.6217 5.95969 27.4583 5.71822C27.2947 5.4767 27.0221 5.33203 26.7305 5.33203H16.4766V3.28125C16.4766 2.79586 16.083 2.40234 15.5977 2.40234H4.75781V0.878906C4.75781 0.393516 4.3643 0 3.87891 0C3.39352 0 3 0.393516 3 0.878906C3 4.55373 3 26.0019 3 29.1211C3 29.6065 3.39352 30 3.87891 30C4.3643 30 4.75781 29.6065 4.75781 29.1211V15.8789H11.7891V17.9297C11.7891 18.4095 12.1801 18.8086 12.668 18.8086H26.7305C27.0222 18.8086 27.2947 18.6639 27.4583 18.4224C27.6218 18.1809 27.6548 17.8741 27.5465 17.6033ZM14.7188 14.1211C13.7122 14.1211 5.84397 14.1211 4.75781 14.1211V4.16016H14.7188C14.7188 5.16668 14.7188 13.0349 14.7188 14.1211ZM14.7898 17.0508L16.219 15.6216C16.3869 15.4538 16.4766 15.2229 16.4766 15V7.08984H25.4323L23.5707 11.7439C23.4869 11.9534 23.4869 12.1872 23.5707 12.3968L25.4323 17.0508H14.7898Z" fill="#EF9C1C"/>
</svg>
